<?xml version="1.0" encoding="UTF-8" standalone="no"?>
<!-- Created with Inkscape (http://www.inkscape.org/) -->

<svg
   width="106.5536mm"
   height="96.44899mm"
   viewBox="0 0 106.5536 96.44899"
   version="1.1"
   id="svg749"
   xml:space="preserve"
   inkscape:version="1.2.2 (732a01da63, 2022-12-09)"
   sodipodi:docname="Sky Logo 2.svg"
   xmlns:inkscape="http://www.inkscape.org/namespaces/inkscape"
   xmlns:sodipodi="http://sodipodi.sourceforge.net/DTD/sodipodi-0.dtd"
   xmlns="http://www.w3.org/2000/svg"
   xmlns:svg="http://www.w3.org/2000/svg"><sodipodi:namedview
     id="namedview751"
     pagecolor="#ffffff"
     bordercolor="#000000"
     borderopacity="0.25"
     inkscape:showpageshadow="2"
     inkscape:pageopacity="0.0"
     inkscape:pagecheckerboard="0"
     inkscape:deskcolor="#d1d1d1"
     inkscape:document-units="mm"
     showgrid="false"
     inkscape:zoom="0.60714727"
     inkscape:cx="28.82332"
     inkscape:cy="679.40682"
     inkscape:window-width="1920"
     inkscape:window-height="1010"
     inkscape:window-x="1913"
     inkscape:window-y="-6"
     inkscape:window-maximized="1"
     inkscape:current-layer="layer3" /><defs
     id="defs746"><inkscape:path-effect
       effect="bspline"
       id="path-effect11446"
       is_visible="true"
       lpeversion="1"
       weight="33.333333"
       steps="2"
       helper_size="0"
       apply_no_weight="true"
       apply_with_weight="true"
       only_selected="false" /><inkscape:path-effect
       effect="bspline"
       id="path-effect11442"
       is_visible="true"
       lpeversion="1"
       weight="33.333333"
       steps="2"
       helper_size="0"
       apply_no_weight="true"
       apply_with_weight="true"
       only_selected="false" /><filter
       inkscape:collect="always"
       style="color-interpolation-filters:sRGB"
       id="filter2597"
       x="-0.084130265"
       y="-0.16952442"
       width="1.1682605"
       height="1.3390487"><feGaussianBlur
         inkscape:collect="always"
         stdDeviation="1.8123289"
         id="feGaussianBlur2599" /></filter></defs><g
     inkscape:groupmode="layer"
     id="layer3"
     inkscape:label="Layer 1"
     style="display:inline"
     transform="translate(-4.5686632,-80.61952)"><g
       id="g11412"
       style="display:inline"
       inkscape:export-filename="Exports\SkyLogo.svg"
       inkscape:export-xdpi="96"
       inkscape:export-ydpi="96"
       transform="translate(-47.154533,80.619516)"><circle
         style="fill:#f3f4d7;fill-opacity:1;stroke:none;stroke-width:2.6625;stroke-linecap:round;stroke-opacity:1"
         id="circle11406"
         cx="102.00518"
         cy="52.692593"
         r="43.756416" /><path
         id="path11408"
         style="fill:#676c53;fill-opacity:1;stroke:none;stroke-width:2.6625;stroke-linecap:round;stroke-opacity:1"
         d="m 65.563164,76.882069 a 43.756416,43.756416 0 0 0 36.442226,19.56677 43.756416,43.756416 0 0 0 36.4417,-19.56677 z" /><path
         id="path11410"
         style="fill:#a7ac93;fill-opacity:1;stroke:none;stroke-width:2.6625;stroke-linecap:round;stroke-opacity:1"
         d="m 65.562923,76.882129 a 43.756416,43.756416 0 0 0 3.964616,5.083927 h 64.955211 a 43.756416,43.756416 0 0 0 3.9641,-5.083927 z" /></g><g
       aria-label="SKY"
       id="text11416"
       style="font-weight:bold;font-size:19.7556px;-inkscape-font-specification:'sans-serif, Bold';display:inline;fill:#676c53;stroke:#676c53;stroke-linecap:round"><path
         d="m 32.86385,140.88055 v 3.04823 q -1.186494,-0.53055 -2.31511,-0.80064 -1.128616,-0.2701 -2.13183,-0.2701 -1.331187,0 -1.967843,0.36656 -0.636655,0.36656 -0.636655,1.13826 0,0.57878 0.424437,0.90675 0.434083,0.31833 1.562699,0.54984 l 1.581991,0.31833 q 2.401926,0.48231 3.414787,1.46624 1.01286,0.98392 1.01286,2.79742 0,2.38263 -1.418004,3.54983 -1.408359,1.15756 -4.311892,1.15756 -1.369773,0 -2.749192,-0.26045 -1.379419,-0.26045 -2.758839,-0.7717 v -3.13505 q 1.37942,0.73312 2.662376,1.10933 1.292603,0.36655 2.488743,0.36655 1.215432,0 1.861733,-0.40514 0.646302,-0.40514 0.646302,-1.15755 0,-0.67525 -0.44373,-1.0418 -0.434083,-0.36656 -1.745978,-0.65595 l -1.437297,-0.31833 q -2.160769,-0.46302 -3.163983,-1.47588 -0.993567,-1.01286 -0.993567,-2.7299 0,-2.15112 1.389065,-3.30868 1.389066,-1.15755 3.993564,-1.15755 1.186493,0 2.440511,0.18328 1.254017,0.17363 2.594852,0.53054 z"
         id="path11448" /><path
         d="m 37.069632,140.42718 h 3.713821 v 5.25722 l 5.35369,-5.25722 h 4.311892 l -6.935682,6.81992 7.649507,7.58199 h -4.649511 l -5.729896,-5.67202 v 5.67202 h -3.713821 z"
         id="path11450" /><path
         d="m 50.371865,140.42718 h 4.061088 l 3.279738,5.13182 3.279738,-5.13182 h 4.070734 l -5.488738,8.33439 v 6.06752 h -3.713822 v -6.06752 z"
         id="path11452" /></g></g><g
     inkscape:groupmode="layer"
     id="layer5"
     inkscape:label="Layer 3"
     style="display:inline"
     transform="translate(-4.5686632,-80.61952)"><g
       id="g11438"
       style="display:inline"
       transform="translate(-47.154533,80.619516)"><g
         id="g11424"
         transform="translate(41.873767,-8.9181829)"><path
           style="display:inline;opacity:1;fill:#fafafa;fill-opacity:1;stroke-width:3;stroke-linecap:round"
           d="m 14.100223,51.626179 c -0.175962,-0.08335 -0.528206,-0.2502 -0.833484,-0.324489 -0.305277,-0.07429 -0.566132,-0.05566 -0.914633,-0.155688 -0.3485,-0.100025 -0.80085,-0.326197 -1.208713,-0.511604 C 10.73553,50.448991 10.36476,50.300681 10.12361,49.82801 9.8824604,49.355339 9.7712285,48.55817 9.910233,47.844299 c 0.139005,-0.713871 0.528313,-1.344182 0.942245,-1.750739 0.413932,-0.406558 0.865445,-0.594688 1.30119,-0.668803 0.435744,-0.07411 0.862136,-0.03704 1.211168,-0.3811 0.349033,-0.344065 0.633209,-1.101869 0.883547,-1.546901 0.250339,-0.445033 0.472802,-0.593338 0.784841,-1.196944 0.312039,-0.603605 0.726037,-1.695053 1.152475,-2.4367 0.426438,-0.741646 0.871366,-1.149498 1.334904,-1.455415 0.463538,-0.305918 0.945549,-0.509845 1.427581,-0.695237 0.482031,-0.185393 0.964031,-0.352242 1.230196,-0.519752 0.266165,-0.16751 0.326884,-0.369897 0.35472,-0.536703 0.02784,-0.166807 0.02784,-0.352197 -0.0277,-0.537564 -0.05553,-0.185366 -0.166769,-0.389293 -0.315127,-0.824968 -0.148357,-0.435676 -0.333741,-1.103065 -0.373066,-1.650584 -0.03932,-0.547519 0.07627,-1.009897 0.345099,-1.538334 0.268826,-0.528437 0.695211,-1.14021 1.117024,-1.681937 0.421813,-0.541726 0.857406,-1.034135 1.330237,-1.377147 0.472831,-0.343012 0.991909,-0.546937 1.350612,-0.955565 0.358703,-0.408629 0.568061,-1.055729 0.846162,-1.593429 0.278102,-0.537699 0.630344,-0.982637 1.038296,-1.288577 0.407952,-0.305939 0.871423,-0.472787 1.418348,-0.639637 0.546925,-0.16685 1.177235,-0.333699 1.696371,-0.426374 0.519136,-0.09268 0.926984,-0.111209 1.325611,-0.0277 0.398626,0.08351 0.787938,0.268896 1.056608,0.29662 0.26867,0.02772 0.416979,-0.102049 0.589646,-0.390841 0.172667,-0.288791 0.383429,-0.767795 0.652255,-1.249847 0.268827,-0.482053 0.602526,-0.982603 1.019669,-1.538796 0.417143,-0.556193 0.917689,-1.167966 1.488061,-1.702503 0.570371,-0.534537 1.227992,-1.004267 1.836184,-1.373302 0.608191,-0.369034 1.19016,-0.650632 1.792765,-0.780378 0.602606,-0.129745 1.232925,-0.111212 1.788996,-0.268827 0.556072,-0.157614 1.038071,-0.491305 1.501512,-0.936213 0.463442,-0.444908 0.908371,-1.001068 1.909539,-1.826105 1.001167,-0.825037 2.55842,-1.918822 3.787741,-2.677262 1.22932,-0.758439 2.144851,-1.188177 3.155282,-1.521877 1.010432,-0.3337001 2.122751,-0.5747042 3.281469,-0.7786303 1.158718,-0.2039261 2.363739,-0.3707734 3.38281,-0.426406 1.019072,-0.055633 1.854546,6.52e-5 2.596132,0.1206063 0.741587,0.120541 1.390439,0.3059258 2.16909,0.6303989 0.778651,0.3244731 1.687051,0.7879431 2.456416,1.2700001 0.769366,0.482057 1.39968,0.982601 1.932668,1.441256 0.532988,0.458656 0.950115,0.857649 1.450694,1.117098 0.500579,0.259449 1.075279,0.370679 1.520224,0.519055 0.444944,0.148375 0.760105,0.333763 1.042811,0.560596 0.282706,0.226834 0.551494,0.514822 0.653307,0.774337 0.101812,0.259515 0.0462,0.500503 0.07411,0.732306 0.02791,0.231803 0.139149,0.454273 0.751016,1.01041 0.611866,0.556137 1.724187,1.445996 2.41556,2.152486 0.691373,0.70649 0.977016,1.258728 1.162341,2.037368 0.185324,0.778641 0.278019,1.798268 0.315081,2.493466 0.03706,0.695198 0.01853,1.065976 0.157713,1.251238 0.139185,0.185262 0.435815,0.185262 0.92713,0.287277 0.491315,0.102016 1.177246,0.305945 1.807581,0.509887 0.630336,0.203941 1.205039,0.407864 1.79829,0.704534 0.593251,0.296669 1.205028,0.685984 1.612862,0.991918 0.407834,0.305934 0.611767,0.528401 0.843528,0.732297 0.231761,0.203897 0.491302,0.389286 0.732328,0.528294 0.241026,0.139007 0.46348,0.231695 0.732173,0.175986 0.268694,-0.05571 0.583851,-0.259633 1.001083,-0.370848 0.417231,-0.111216 0.93631,-0.129749 1.798406,-0.08338 0.862097,0.04637 2.067116,0.157605 3.114584,0.268846 1.047468,0.111241 1.937325,0.222472 2.604746,0.407938 0.667421,0.185466 1.112349,0.445008 1.714842,1.019781 0.602493,0.574772 1.362578,1.464628 1.909468,2.150587 0.546889,0.685959 0.880588,1.16797 1.102993,1.622185 0.222404,0.454216 0.333636,0.880608 0.389212,1.297718 0.05558,0.41711 0.05558,0.82496 -6.6e-5,1.251326 -0.05564,0.426366 -0.166873,0.871295 -0.302965,1.317281 -0.136092,0.445986 -0.308848,0.92587 -0.178927,1.426499 0.129921,0.50063 0.556309,1.038252 0.852896,1.483209 0.296587,0.444957 0.463435,0.797189 0.658088,1.242133 0.194653,0.444945 0.417115,0.982568 0.564238,1.53887 0.147119,0.556303 0.223559,1.167801 0.269889,1.77032 0.0463,0.60252 0.0649,1.214299 0.0185,1.705533 -0.0464,0.491235 -0.15762,0.862014 -0.347945,1.137143 -0.190327,0.275128 -0.476965,0.466222 -0.750957,0.639889 -0.273993,0.173668 -0.560249,0.34542 -0.627507,0.689233 -0.06726,0.343814 0.0858,0.898663 0.224869,1.33434 0.139065,0.435678 0.268833,0.769368 0.395712,1.113359 0.126879,0.343991 0.262429,0.731278 0.336535,1.064964 0.07411,0.333687 0.09264,0.630304 0.0648,0.917617 -0.02784,0.287313 -0.101995,0.56539 -0.101893,0.778655 1.02e-4,0.213264 0.07426,0.361582 0.191396,0.622573 0.117137,0.260992 0.290702,0.665974 0.383329,1.147969 0.09262,0.481995 0.111165,1.056694 0.06641,1.640944 -0.04474,0.58425 -0.159239,1.213976 -0.428024,1.686607 -0.268785,0.47263 -0.695176,0.806329 -1.158637,1.130757 -0.463462,0.324428 -0.964011,0.639589 -1.510923,0.991837 -0.546912,0.352249 -1.140144,0.741556 -2.150457,1.028921 -1.010314,0.287365 -2.437792,0.472751 -3.346166,0.47284 -0.908374,9e-5 -1.297682,-0.185294 -1.705562,-0.444807 -0.407881,-0.259513 -0.834268,-0.593206 -1.186533,-0.908354 -0.352264,-0.315147 -0.630338,-0.611763 -0.964128,-0.658273 -0.33379,-0.04651 -0.723102,0.157414 -1.195759,0.222345 -0.472656,0.06493 -1.028814,-0.0092 -1.41409,-0.108765 -0.385277,-0.09954 -0.615815,-0.234021 -1.209182,-0.04874 -0.593366,0.18528 -1.557379,0.685826 -2.471151,1.174946 -0.913773,0.489121 -1.792947,0.975473 -2.478782,1.133131 -0.685836,0.157657 -1.186377,-0.0092 -1.724018,-0.176053 -0.537642,-0.166861 -1.11234,-0.333707 -1.798302,-0.685897 -0.685961,-0.35219 -1.483132,-0.889818 -2.002283,-1.353247 -0.519151,-0.463429 -0.760151,-0.852739 -1.575868,-0.95487 -0.815717,-0.102131 -2.206118,0.08326 -3.068295,0.324272 -0.862178,0.241018 -1.195872,0.537633 -1.778708,0.639735 -0.582836,0.102101 -1.41911,0.0092 -1.952306,-0.188769 -0.533196,-0.197952 -0.78315,-0.524812 -1.506229,-0.441553 -0.72308,0.08326 -1.928098,0.565263 -2.836429,0.713647 -0.908331,0.148384 -1.5201,-0.037 -2.252442,-0.09267 -0.732343,-0.05568 -1.585125,0.01848 -2.187609,0.0093 -0.602484,-0.0092 -0.954723,-0.101915 -1.31624,-0.194613 -0.361517,-0.0927 -0.732294,-0.185389 -1.167971,-0.287361 -0.435678,-0.101971 -0.936217,-0.213204 -1.622166,-0.472717 -0.685949,-0.259512 -1.557268,-0.667363 -2.335959,-1.288362 -0.778691,-0.620999 -1.464623,-1.455238 -2.122746,-1.891042 -0.658123,-0.435803 -1.288435,-0.472882 -1.70566,-0.435838 -0.417226,0.03705 -0.621153,0.14828 -1.16797,0.176124 -0.546816,0.02784 -1.436674,-0.02777 -2.354354,-0.166789 -0.91768,-0.139018 -1.863151,-0.361483 -2.400785,-0.509744 -0.537634,-0.148262 -0.667402,-0.222416 -0.862229,-0.11126 -0.194827,0.111157 -0.454367,0.407776 -1.093911,0.787799 -0.639544,0.380022 -1.659175,0.84349 -2.799257,1.019648 -1.140082,0.176157 -2.400712,0.06492 -3.323947,-0.137089 -0.923235,-0.202011 -1.523893,-0.502337 -2.488012,-0.446821 -0.96412,0.05552 -2.298909,0.463369 -3.513165,0.58392 -1.214255,0.12055 -2.308045,-0.0463 -3.494554,-0.287297 -1.18651,-0.240996 -2.465678,-0.556152 -3.633656,-1.112257 -1.167978,-0.556106 -2.22469,-1.353274 -2.947801,-2.243111 -0.72311,-0.889838 -1.112422,-1.872391 -1.307146,-2.363838 -0.194723,-0.491446 -0.194693,-0.491446 -0.370655,-0.574795 z"
           id="path11418"
           inkscape:original-d="m 14.276185,51.709528 c -0.35198,-0.16658 -0.70422,-0.33344 -1.05673,-0.50055 -0.25929,2.6e-4 -0.51883,0.0373 -0.77864,0.0556 -0.44468,-0.20366 -0.88961,-0.44467 -1.33482,-0.6674 -0.37052,-0.14805 -0.74129,-0.29636 -1.1123405,-0.44494 -0.11097,-0.79693 -0.2222,-1.5941 -0.3337,-2.39154 0.3895905,-0.63008 0.7789005,-1.26039 1.1679605,-1.89099 0.44521,-0.16659 0.89014,-0.37052 1.33481,-0.55617 0.42667,0.0373 0.85306,0.0744 1.2792,0.11124 0.27836,-0.72278 0.55644,-1.48287 0.83426,-2.2247 0.22274,-0.14805 0.4452,-0.29636 0.66741,-0.44493 0.40813,-1.05649 0.81598,-2.15027 1.223581,-3.2258 0.44521,-0.40761 0.89014,-0.81546 1.33481,-1.22358 0.48229,-0.20367 0.9643,-0.4076 1.44605,-0.61179 0.48229,-0.16659 0.96429,-0.33344 1.44604,-0.50056 0.0559,-0.16659 0.11151,-0.37051 0.16686,-0.55617 2.6e-4,-0.14805 2.6e-4,-0.33344 0,-0.50056 -0.11098,-0.20366 -0.22221,-0.40759 -0.33371,-0.61178 -0.18513,-0.66716 -0.37051,-1.33455 -0.55617,-2.00223 0.1115,-0.42614 0.22273,-0.88961 0.33371,-1.33481 0.42667,-0.61154 0.85306,-1.22331 1.27919,-1.83537 0.42667,-0.46322 0.85306,-0.96377 1.2792,-1.44605 0.51937,-0.20367 1.03845,-0.40759 1.55728,-0.61179 0.2042,-0.61152 0.40812,-1.26038 0.61179,-1.89097 0.35251,-0.44468 0.70475,-0.88962 1.05673,-1.33482 0.46375,-0.16659 0.92722,-0.33344 1.39043,-0.50055 0.63061,-0.16659 1.26092,-0.33344 1.89099,-0.50056 0.40813,-0.0183 0.81598,-0.0368 1.22357,-0.0556 0.3896,0.18565 0.77891,0.37104 1.16797,0.55617 0.14858,-0.12951 0.29689,-0.25928 0.44493,-0.38932 0.2042,-0.44468 0.40813,-0.92669 0.61179,-1.39043 0.33398,-0.5003 0.66768,-1.00085 1.00111,-1.50167 0.50083,-0.61154 1.00138,-1.22331 1.50167,-1.83536 0.64915,-0.44468 1.298,-0.92669 1.9466,-1.39043 0.57499,-0.25929 1.14969,-0.55591 1.72414,-0.83426 0.6306,0.0188 1.26092,0.0373 1.89098,0.0556 0.4823,-0.33345 0.9643,-0.66714 1.44605,-1.00111 0.44521,-0.55592 0.89014,-1.11208 1.33482,-1.66852 1.55758,-1.09356 3.11483,-2.18735 4.67185,-3.28142 0.90869,-0.4076 1.81709,-0.85253 2.72524,-1.27919 1.11263,-0.2407503 2.22495,-0.4817503 3.33704,-0.7230303 1.20532,-0.16659 2.41034,-0.33344 3.61512,-0.50055 0.83454,0.0373 1.66878,0.1115 2.50277,0.16685 0.64915,0.18566 1.298,0.37105 1.94661,0.55617 0.90869,0.4637503 1.81709,0.9272203 2.72524,1.3904303 0.63061,0.50083 1.26092,1.00138 1.89099,1.50167 0.42667,0.42667 0.85306,0.81598 1.27919,1.22358 0.57499,0.1115 1.14969,0.22273 1.72414,0.3337 0.31543,0.18566 0.63059,0.37105 0.94549,0.55617 0.25982,0.25982 0.51936,0.55644 0.77864,0.83426 -0.0554,0.24128 -0.11096,0.48228 -0.16685,0.72303 0.1115,0.22273 0.22274,0.4452 0.33371,0.6674 1.11263,0.89016 2.22495,1.78002 3.33703,2.66963 0.27836,0.51937 0.55644,1.07552 0.83426,1.61289 0.093,1.01994 0.18566,2.03957 0.27809,3.05895 -0.0183,0.37105 -0.0368,0.74183 -0.0556,1.11234 0.29689,2.7e-4 0.59352,2.7e-4 0.88988,0 0.68622,0.2042 1.37215,0.40813 2.05783,0.6118 0.57499,0.20419 1.14969,0.40812 1.72414,0.61178 0.61206,0.3896 1.22384,0.77891 1.83537,1.16797 0.20419,0.22273 0.40812,0.4452 0.61179,0.66739 0.25981,0.18566 0.51935,0.37105 0.77864,0.55618 0.22273,0.093 0.4452,0.18565 0.6674,0.27808 0.31544,-0.20367 0.6306,-0.40759 0.9455,-0.61179 0.51937,-0.0183 1.03845,-0.0368 1.55728,-0.0556 1.20533,0.11151 2.41035,0.22274 3.61512,0.33371 0.89016,0.1115 1.780017,0.22273 2.669627,0.3337 0.44521,0.25982 0.89014,0.51936 1.33481,0.77864 0.76039,0.89016 1.52047,1.78002 2.28031,2.66963 0.33397,0.48229 0.66767,0.9643 1.00111,1.44605 0.1115,0.42667 0.22274,0.85306 0.3337,1.2792 2.7e-4,0.40813 2.7e-4,0.81598 0,1.22357 -0.11097,0.44522 -0.2222,0.89015 -0.3337,1.33482 -0.16659,0.44521 -0.33344,0.92722 -0.50055,1.39043 0.42667,0.53791 0.85306,1.07553 1.27919,1.6129 0.16712,0.35252 0.33397,0.70475 0.50056,1.05673 0.22273,0.53791 0.4452,1.07553 0.6674,1.6129 0.0744,0.57498 0.148577,1.18676 0.222467,1.77975 0.0188,0.61207 0.0373,1.22385 0.0556,1.83537 -0.11097,0.37105 -0.2222,0.74183 -0.333697,1.11234 -0.27783,0.16712 -0.55591,0.37105 -0.83426,0.55618 -0.27783,0.14858 -0.55591,0.33396 -0.83426,0.50055 0.14858,0.51937 0.29689,1.07553 0.44494,1.6129 0.13004,0.33398 0.25981,0.66767 0.38932,1.00111 0.13004,0.35252 0.25981,0.74183 0.38932,1.11235 0.0188,0.29689 0.0373,0.59351 0.0556,0.88987 -0.0739,0.27836 -0.14804,0.55644 -0.22246,0.83426 0.0744,0.14858 0.14857,0.29689 0.22246,0.44494 0.16713,0.37105 0.33398,0.77891 0.500557,1.16796 0.0188,0.57499 0.0373,1.14969 0.0556,1.72414 -0.110967,0.59352 -0.222197,1.22384 -0.333707,1.83536 -0.42614,0.33398 -0.85253,0.66768 -1.27919,1.00111 -0.5003,0.31544 -1.00085,0.6306 -1.50167,0.9455 -0.593,0.38959 -1.18623,0.7789 -1.77975,1.16796 -1.42727,0.18566 -2.854747,0.37105 -4.282527,0.55617 -0.38906,-0.18513 -0.77837,-0.37051 -1.16796,-0.55617 -0.42614,-0.33345 -0.85253,-0.66714 -1.2792,-1.00111 -0.27782,-0.29637 -0.5559,-0.59298 -0.83425,-0.88988 -0.38907,0.2042 -0.77838,0.40813 -1.16797,0.61179 -0.55592,-0.0739 -1.11208,-0.14804 -1.66851,-0.22247 -0.22221,-0.11097 -0.44468,-0.25928 -0.66741,-0.38932 -0.96379,0.50083 -1.9278,1.00138 -2.8921,1.50167 -0.87109,0.46375 -1.74241,0.9643 -2.61401,1.44605 -0.5003,-0.16659 -1.00084,-0.33344 -1.50166,-0.50056 -0.57446,-0.16659 -1.14916,-0.33343 -1.72414,-0.50055 -0.79693,-0.53738 -1.5941,-1.07501 -2.39154,-1.6129 -0.24075,-0.38907 -0.48175,-0.77838 -0.72302,-1.16796 -1.3902,0.18565 -2.7806,0.37104 -4.1713,0.55617 -0.33345,0.29689 -0.66714,0.59351 -1.00111,0.88987 -0.83401,-0.0739 -1.66825,-0.18512 -2.50277,-0.27808 -0.24075,-0.29637 -0.48176,-0.63007 -0.72303,-0.94549 -1.2048,0.48229 -2.40982,0.96429 -3.61512,1.44604 -0.61154,-0.18513 -1.22331,-0.37051 -1.83537,-0.55617 -0.85255,0.0744 -1.70533,0.14858 -2.55839,0.22247 -0.35199,-0.0924 -0.70422,-0.18513 -1.05673,-0.27809 -0.37053,-0.0924 -0.7413,-0.18512 -1.11235,-0.27808 -0.5003,-0.11098 -1.00084,-0.22221 -1.50166,-0.33371 -0.87109,-0.4076 -1.74241,-0.81545 -2.61401,-1.22358 -0.6857,-0.83401 -1.37163,-1.66825 -2.05784,-2.50277 -0.63008,-0.0368 -1.26039,-0.0739 -1.89099,-0.11124 -0.20366,0.11151 -0.40759,0.22274 -0.61179,0.33371 -0.88962,-0.0554 -1.77948,-0.11097 -2.66962,-0.16685 -0.94525,-0.22221 -1.89072,-0.44468 -2.83648,-0.66741 -0.12951,-0.0739 -0.25928,-0.14805 -0.38932,-0.22247 -0.25929,0.29689 -0.51883,0.59351 -0.77864,0.88988 -1.01941,0.46375 -2.03904,0.92722 -3.05895,1.39043 -1.26042,-0.11098 -2.52105,-0.22221 -3.78197,-0.33371 -0.593,-0.27782 -1.18624,-0.59298 -1.77976,-0.88987 -1.33457,0.40813 -2.66936,0.81598 -4.00444,1.22358 -1.09356,-0.16659 -2.18735,-0.33344 -3.28142,-0.50056 -1.27896,-0.31491 -2.55813,-0.63006 -3.83759,-0.94549 -1.05648,-0.79693 -2.11319,-1.5941 -3.170181,-2.39154 -0.38906,-0.98233 -0.77838,-1.96488 -1.16796,-2.94772 z"
           inkscape:path-effect="#path-effect11442" /><path
           id="path11420"
           style="display:inline;opacity:1;fill:#b1bfc3;fill-opacity:1;stroke-width:3;stroke-linecap:round"
           d="m 15.886588,40.438987 c -0.317298,0.65684 -0.614917,1.39998 -0.853178,1.86087 -0.312038,0.60361 -0.534626,0.7518 -0.784965,1.19683 -0.250338,0.44503 -0.534634,1.20313 -0.883667,1.54719 -0.349032,0.34406 -0.775551,0.30674 -1.211295,0.38086 -0.435744,0.0741 -0.886764,0.26213 -1.300696,0.66869 -0.413931,0.40656 -0.803574,1.03693 -0.9425777,1.7508 -0.139004,0.71387 -0.02773,1.51118 0.2134237,1.98385 0.241149,0.47267 0.611713,0.62075 1.019576,0.80616 0.407862,0.1854 0.860211,0.41157 1.208711,0.51159 0.348501,0.10003 0.609396,0.0818 0.914673,0.15607 0.305277,0.0743 0.657579,0.24117 0.833541,0.32452 0.175962,0.0833 0.176314,0.0832 0.371037,0.57465 0.194723,0.49144 0.583787,1.47384 1.306897,2.36368 0.72311,0.88983 1.779647,1.68717 2.947624,2.24327 1.167976,0.5561 2.447378,0.87108 3.633886,1.11208 1.186508,0.24099 2.280106,0.40787 3.494361,0.28732 1.214254,-0.12055 2.549361,-0.52843 3.51348,-0.58395 0.964119,-0.0555 1.564469,0.24499 2.487704,0.447 0.923234,0.20202 2.184264,0.3131 3.324345,0.13695 1.140081,-0.17616 2.159252,-0.63956 2.798795,-1.01958 0.639543,-0.38002 0.899164,-0.67639 1.09399,-0.78755 0.194827,-0.11115 0.324846,-0.0372 0.86248,0.11111 0.537633,0.14826 1.483208,0.37051 2.400887,0.50953 0.917679,0.13901 1.807562,0.19476 2.354378,0.16691 0.546816,-0.0278 0.750662,-0.13917 1.167888,-0.17622 0.417225,-0.037 1.047199,3.5e-4 1.705322,0.43615 0.658122,0.43581 1.344177,1.26985 2.122868,1.89084 0.77869,0.621 1.649826,1.02879 2.335774,1.2883 0.685949,0.25951 1.186963,0.37087 1.622643,0.47284 0.43567,0.10197 0.80637,0.19462 1.16788,0.28732 0.36152,0.0927 0.71372,0.1856 1.3162,0.19482 0.60249,0.009 1.45513,-0.065 2.18747,-0.009 0.73234,0.0557 1.34424,0.24088 2.25257,0.0925 0.908326,-0.14839 2.113435,-0.6304 2.836515,-0.71365 0.72308,-0.0833 0.97266,0.24336 1.50585,0.44131 0.5332,0.19795 1.3695,0.29124 1.95234,0.18914 0.58283,-0.1021 0.91652,-0.39874 1.7787,-0.63976 0.86218,-0.24101 2.25283,-0.42665 3.06855,-0.32452 0.81571,0.10213 1.05646,0.49155 1.57561,0.95498 0.51915,0.46343 1.3165,1.00121 2.00246,1.3534 0.68596,0.35219 1.2607,0.51889 1.79834,0.68575 0.53765,0.16686 1.03809,0.33387 1.72393,0.17622 0.68584,-0.15766 1.56515,-0.64415 2.47892,-1.13327 0.91377,-0.48912 1.8778,-0.98984 2.47117,-1.17512 0.59336,-0.18528 0.82395,-0.0504 1.20922,0.0491 0.38528,0.0995 0.94122,0.17345 1.41387,0.10852 0.47266,-0.0649 0.862,-0.26872 1.19579,-0.22221 0.33379,0.0465 0.61202,0.34321 0.96429,0.65836 0.35226,0.31515 0.77861,0.64844 1.18649,0.90796 0.40788,0.25951 0.79695,0.44502 1.70532,0.44493 0.90837,-9e-5 2.33625,-0.18547 3.34656,-0.47284 1.01032,-0.28736 1.60335,-0.67663 2.150258,-1.02888 0.54691,-0.35224 1.04756,-0.66724 1.51102,-0.99167 0.31519,-0.22063 0.61175,-0.44676 0.85473,-0.71675 0.26516,-0.46109 0.47787,-0.86298 0.61443,-1.28209 0.0589,-0.26951 0.0966,-0.54847 0.117314,-0.81856 0.0447,-0.58425 0.0265,-1.15924 -0.0661,-1.64124 -0.0926,-0.482 -0.2663,-0.88674 -0.38344,-1.14773 -0.0785,-0.17498 -0.13535,-0.29912 -0.16588,-0.42633 -0.10978,-0.0476 -0.25998,-0.0627 -0.48627,-0.0729 -0.62106,-0.0279 -1.77038,0.009 -3.383258,-0.37982 -1.61288,-0.38925 -3.70157,-1.21012 -5.92005,-1.22628 -2.21849,-0.0162 -4.59161,0.76249 -6.70502,1.00355 -2.11341,0.24107 -3.97297,-0.0561 -5.69423,-0.59324 -1.72125,-0.53712 -3.31576,-1.31583 -4.89169,-1.3901 -1.57592,-0.0743 -3.14591,0.56106 -3.93671,0.70694 -0.7908,0.14588 -0.82792,-0.188 -2.31097,-0.0584 -1.48304,0.12961 -4.419649,0.72431 -6.585125,1.0573 -2.16547,0.33299 -3.57427,0.40722 -4.85345,0.2775 -1.279172,-0.12972 -2.438333,-0.46598 -3.174996,-0.87229 -0.736663,-0.40632 -1.07049,-0.8883 -1.033529,-1.37046 0.03696,-0.48216 0.445074,-0.96418 0.945679,-1.39062 0.500605,-0.42643 1.0935,-0.79745 1.390096,-1.07538 0.296596,-0.27794 0.296859,-0.46337 0.111621,-0.59325 -0.185238,-0.12987 -0.556301,-0.20407 -1.260905,0.0925 -0.704605,0.29658 -1.742561,0.96409 -2.92902,1.50172 -1.18646,0.53764 -2.521146,0.94549 -3.651974,1.05678 -1.130828,0.1113 -2.057914,-0.0739 -2.706811,-0.35191 -0.648898,-0.27799 -1.01983,-0.64863 -1.112594,-0.87127 -0.09276,-0.22263 0.09298,-0.29707 0.815971,-0.72347 0.72299,-0.42639 1.983468,-1.20475 2.50269,-1.66811 0.519221,-0.46336 0.296504,-0.61166 -0.649056,-0.44494 -0.945561,0.16673 -2.613968,0.64856 -3.837492,0.68575 -1.223524,0.0372 -2.001798,-0.37079 -2.854606,-0.88987 -0.852809,-0.51908 -1.779872,-1.14907 -1.687236,-0.62993 0.09264,0.51913 1.221876,2.21327 1.769401,3.25716 0.547525,1.04389 0.547814,1.48846 0.566374,1.84072 0.01856,0.35226 0.05557,0.61182 -0.593246,1.00097 -0.648817,0.38915 -1.983857,0.90841 -3.300057,0.77876 -1.316199,-0.12964 -2.614171,-0.90859 -3.911905,-1.68723 -2.150531,0.18539 -4.300645,0.37101 -6.117457,0.093 -1.816811,-0.27799 -3.300114,-1.01989 -4.542358,-3.02203 -1.242244,-2.00215 -2.243043,-5.26472 -3.207039,-7.76749 -0.09793,-0.25425 -0.195799,-0.49547 -0.293006,-0.73484 z" /><path
           id="path11422"
           style="display:inline;opacity:1;fill:#dbe3e2;fill-opacity:1;stroke-width:3;stroke-linecap:round"
           d="m 51.280348,10.064352 c -0.152742,0.0452 -0.307787,0.0884 -0.456303,0.13746 -1.010422,0.3337 -1.926052,0.76344 -3.155363,1.52187 -1.22931,0.75844 -2.786207,1.85181 -3.787365,2.67684 -1.001159,0.82497 -1.446004,1.38133 -1.909445,1.82624 -0.463433,0.4449 -0.945645,0.77877 -1.501717,0.93638 -0.556062,0.15761 -1.186432,0.13897 -1.789038,0.26872 -0.602596,0.12974 -1.184473,0.41127 -1.792655,0.78031 -0.608191,0.36903 -1.265693,0.83902 -1.836064,1.37356 -0.570363,0.53453 -1.071145,1.14603 -1.488281,1.70222 -0.417143,0.55619 -0.750749,1.05693 -1.019576,1.53892 -0.268826,0.48205 -0.47949,0.96127 -0.652157,1.25006 -0.09037,0.15115 -0.174562,0.25774 -0.272335,0.32194 0.145585,0.37117 0.21001,0.80815 0.304375,1.18546 0.127158,0.50842 0.309018,0.90789 0.290938,1.08934 -0.01808,0.18145 -0.2361,0.14528 -0.345199,0.36328 -0.1091,0.218 -0.109037,0.72621 -0.109037,1.21647 0,0.49026 -3.9e-5,1.03513 0.109037,1.416455 0.109077,0.38131 0.344866,0.61757 0.535368,0.55397 0.190502,-0.0636 0.372215,-0.39059 0.590145,-0.66301 0.21793,-0.272425 0.472239,-0.490275 0.853695,-0.544675 0.381449,-0.0544 0.890058,0.0541 1.144116,0.3266 0.254056,0.272465 0.253832,0.708235 0.344682,1.162205 0.09084,0.45397 0.284746,0.95769 -0.01189,1.43195 -0.296632,0.47426 -1.07633,0.99408 -1.776119,1.53324 -0.699789,0.53916 -1.353373,1.12035 -2.061373,1.22939 -0.707995,0.10897 -1.470572,-0.25435 -2.432926,-0.76275 -0.962354,-0.5084 -2.124454,-1.1622 -2.741952,-1.70687 -0.617493,-0.54467 -0.69026,-0.98047 -0.345198,-1.28933 0.345057,-0.30886 1.09945,-0.48846 1.684652,-0.50746 0.585197,-0.0191 0.984681,0.1262 1.347721,0.108 0.363035,-0.0182 0.689862,-0.19947 0.835091,-0.50798 0.145229,-0.30852 0.106294,-0.780635 -0.273368,-1.035085 -0.379669,-0.25445 -1.105915,-0.36339 -1.614372,-0.63562 -0.508464,-0.27223 -0.799281,-0.70785 -0.67231,-1.50688 0.12225,-0.76935 0.631969,-1.874 1.156001,-2.55488 -0.399287,0.0915 -0.823784,0.20725 -1.208195,0.32452 -0.546917,0.16685 -1.010566,0.3333 -1.418518,0.63924 -0.407943,0.30594 -0.760084,0.75111 -1.038179,1.28881 -0.278101,0.5377 -0.487249,1.18457 -0.845943,1.59319 -0.358703,0.40863 -0.878,0.613 -1.350822,0.95601 -0.472831,0.34302 -0.908339,0.834935 -1.330152,1.376665 -0.421804,0.54173 -0.848418,1.15363 -1.117244,1.68207 -0.268829,0.52843 -0.384012,0.99089 -0.344682,1.53841 0.03933,0.54752 0.224747,1.21487 0.373104,1.65054 0.148358,0.43568 0.25918,0.63991 0.314709,0.82527 0.05554,0.18536 0.05575,0.37063 0.02791,0.53744 -0.02784,0.1668 -0.08834,0.36889 -0.354501,0.5364 -0.266156,0.16751 -0.748387,0.33448 -1.230416,0.51987 -0.482025,0.18532 -0.96429,0.38964 -1.427819,0.69556 -0.463538,0.30592 -0.908366,0.71357 -1.334803,1.45521 -0.42643,0.74165 -0.840345,1.83294 -1.152384,2.43654 -0.07586,0.14675 -0.145945,0.26524 -0.212907,0.36897 0.07869,-0.11722 0.16066,-0.24977 0.251664,-0.42581 0.238261,-0.46089 0.535882,-1.20403 0.853178,-1.86087 l 5.17e-4,5.2e-4 c 0.09721,0.23937 0.195076,0.48059 0.293005,0.73484 0.963987,2.50269 1.964805,5.76533 3.20704,7.76748 1.242228,2.00214 2.725565,2.74405 4.542358,3.02204 1.816794,0.27801 3.966943,0.0924 6.117456,-0.093 1.297725,0.77864 2.595717,1.5576 3.911906,1.68724 1.316191,0.12965 2.651249,-0.38962 3.300057,-0.77877 0.648808,-0.38915 0.611805,-0.64871 0.593245,-1.00097 -0.01856,-0.35226 -0.01886,-0.79684 -0.566373,-1.84072 -0.547525,-1.04382 -1.676761,-2.73803 -1.769401,-3.25716 -0.09264,-0.51914 0.834435,0.11092 1.687235,0.62993 0.8528,0.51908 1.631099,0.92707 2.854606,0.88987 1.223514,-0.0372 2.89194,-0.51901 3.837492,-0.68574 0.945556,-0.16671 1.168275,-0.0184 0.649056,0.44493 -0.519213,0.46336 -1.779708,1.24173 -2.502689,1.66812 -0.722991,0.4264 -0.908731,0.50084 -0.815971,0.72347 0.09276,0.22264 0.463704,0.59327 1.112593,0.87126 0.648897,0.27801 1.575988,0.46322 2.706812,0.35192 1.130811,-0.11129 2.465524,-0.51916 3.651973,-1.05679 1.186451,-0.53763 2.224417,-1.20514 2.92902,-1.50171 0.704598,-0.29657 1.075682,-0.22238 1.260905,-0.0925 0.185238,0.12988 0.184979,0.3153 -0.111621,0.59324 -0.296581,0.27793 -0.889496,0.64896 -1.390096,1.07539 -0.500601,0.42644 -0.908678,0.90845 -0.945678,1.39061 -0.03696,0.48216 0.296867,0.96414 1.033528,1.37046 0.736653,0.40631 1.895835,0.74258 3.175005,0.8723 1.27911,0.12972 2.68798,0.0555 4.85345,-0.2775 2.16541,-0.33299 5.102078,-0.92769 6.585118,-1.0573 1.48304,-0.1296 1.52017,0.20426 2.31097,0.0584 0.79079,-0.14588 2.360857,-0.78123 3.936707,-0.70693 1.57592,0.0743 3.17045,0.85297 4.8917,1.39009 1.72119,0.53714 3.58082,0.83432 5.69422,0.59325 2.1134,-0.24106 4.48653,-1.01976 6.70502,-1.00356 2.21848,0.0162 4.30718,0.83704 5.92005,1.22628 1.61288,0.38882 2.76221,0.35193 3.38326,0.37983 0.19289,0.009 0.32813,0.0224 0.43254,0.0553 -0.006,-0.0394 -0.0109,-0.0792 -0.0109,-0.12247 -1.1e-4,-0.21326 0.074,-0.49094 0.1018,-0.77825 0.0278,-0.28732 0.01,-0.58408 -0.0646,-0.91777 -0.0595,-0.26797 -0.16048,-0.56676 -0.26304,-0.8537 -0.21104,0.10417 -0.44965,0.15968 -0.5979,0.22893 -0.27245,0.12726 -0.23644,0.30841 -0.41806,0.6351 -0.18161,0.32669 -0.58076,0.79904 -1.03456,1.03508 -0.4538,0.23604 -0.96232,0.23624 -1.47071,0.0548 -0.5084,-0.18147 -1.03384,-0.55722 -1.55185,-0.73277 -0.518,-0.17556 -1.06277,-0.17525 -1.5167,-0.3204 -0.45393,-0.14514 -0.81687,-0.43585 -1.37976,-0.61753 -0.56289,-0.18168 -1.32559,-0.25447 -1.834,-0.3452 -0.5084,-0.0907 -0.76252,-0.19934 -0.78083,-0.34468 -0.0183,-0.14534 0.19927,-0.32712 0.21756,-0.49041 0.0183,-0.16329 -0.1632,-0.30859 -0.29042,-0.56276 -0.12722,-0.25417 -0.20695,-0.65229 -0.004,-0.7984 0.20334,-0.1461 0.67577,-0.10952 1.02061,-0.25476 0.34484,-0.14524 0.57931,-0.49753 1.07952,-0.55759 0.50021,-0.0601 1.29888,0.12163 1.77095,0.21239 0.47208,0.0908 0.61752,0.0907 0.63562,-0.0181 0.0181,-0.10878 -0.0906,-0.32677 -0.32659,-0.52658 -0.23597,-0.19982 -0.59937,-0.38116 -1.01699,-0.56276 -0.41763,-0.18159 -0.88954,-0.36293 -1.36168,-0.43563 -0.47213,-0.0727 -0.94432,-0.0369 -1.28932,-0.16382 -0.34501,-0.12694 -0.56294,-0.41744 -0.92605,-0.68988 -0.3631,-0.27243 -0.88581,-0.53374 -1.35082,-0.40307 -0.465,0.13066 -0.90073,0.63925 -1.30018,1.03869 -0.39944,0.39945 -0.76269,0.68968 -1.99729,0.87127 -1.2346,0.18158 -3.34118,0.25418 -5.12062,-0.29042 -1.77944,-0.5446 -3.2143,-1.69219 -4.25814,-2.44378 -1.04384,-0.75159 -1.66101,-1.07833 -2.11511,-1.09657 -0.4541,-0.0182 -0.72644,0.25416 -0.95343,0.84439 -0.22699,0.59023 -0.37813,1.49698 -1.04697,2.35076 -0.668837,0.85378 -1.867107,1.725 -2.538857,2.07016 -0.67175,0.34516 -0.81709,0.16361 -1.59784,-0.0181 -0.78074,-0.1817 -2.19701,-0.36322 -3.01428,-0.25425 -0.81728,0.10897 -1.035048,0.5087 -1.870168,0.87178 -0.83513,0.36309 -2.28788,0.68989 -3.01429,0.78083 -0.72641,0.091 -0.72638,-0.0545 -0.5085,-0.36328 0.21789,-0.3088 0.65342,-0.78083 0.99839,-1.3255 0.34498,-0.54468 0.59918,-1.16206 0.63562,-1.61592 0.03644,-0.45386 -0.14502,-0.74433 -0.4718,-0.92604 -0.32679,-0.18172 -0.79883,-0.25411 -1.05317,-0.45372 -0.25434,-0.19961 -0.29059,-0.5269 -0.23616,-0.96274 0.05443,-0.43583 0.19989,-0.98035 0.49041,-1.61592 0.29052,-0.63557 0.74212,-1.38855 1.27899,-1.73839 0.53688,-0.34985 1.19042,-0.34998 1.68052,-0.73122 0.4901,-0.38125 0.83043,-1.17421 0.8785,-1.63091 0.04807,-0.45671 -0.16984,-0.63867 -0.17002,-1.03818 -1.7e-4,-0.39951 0.21777,-1.0164 0.27234,-1.45211 0.05457,-0.43571 -0.06789,-0.72105 -0.26097,-0.85111 -0.19308,-0.13007 -0.48772,-0.16651 -0.77618,0.0517 -0.28846,0.21818 -0.57942,0.69002 -0.85163,0.92604 -0.2722,0.23601 -0.52595,0.236 -0.65319,0.10903 -0.12723,-0.12697 -0.12747,-0.41731 -0.47232,-0.58084 -0.34485,-0.16353 -1.03466,-0.27268 -1.7973,-0.30902 -0.76265,-0.0363 -1.59793,-5e-5 -2.08825,-0.1633 -0.49032,-0.16325 -0.63574,-0.5265 -0.32711,-1.03508 0.30862,-0.50858 1.08904,-1.17751 1.73374,-1.73271 0.64471,-0.5552 1.18976,-1.02698 1.40767,-1.55339 0.21791,-0.52642 0.10235,-1.14286 -0.5116,-1.54306 -0.61394,-0.40021 -1.73975,-0.65439 -2.84737,-1.01751 -1.107615,-0.363125 -2.196929,-0.835145 -2.923334,-1.506895 -0.726406,-0.67174 -1.08955,-1.54335 -1.144117,-2.23345 -0.05457,-0.6901 0.199722,-1.19847 0.236162,-1.59784 0.03644,-0.39937 -0.145262,-0.68986 -0.653707,-1.88825 -0.508446,-1.1984 -1.343843,-3.30461 -1.652612,-4.90255 -0.30877,-1.59794 -0.09105,-2.68744 0.726053,-4.04936 0.613404,-1.0224 1.564957,-2.19825 2.469617,-3.48144 z m 16.527156,3.34191 c -0.26211,0.23779 -0.56152,0.34668 -0.78445,0.46612 -0.50854,0.27247 -0.61739,0.59936 -0.56276,0.87178 0.0546,0.27242 0.27227,0.49052 0.30851,0.63562 0.0362,0.14511 -0.0945,0.21053 -0.22892,0.52297 -0.13445,0.31244 -0.2502,0.89191 -0.22841,1.23765 0.0218,0.34574 0.16691,0.52715 0.42116,0.67231 0.25425,0.14516 0.61735,0.25453 0.96221,0.19999 0.34487,-0.0545 0.65529,-0.26144 0.99064,-0.32143 0.33535,-0.06 0.66223,0.0492 0.898137,0.0491 0.23591,-7e-5 0.38076,-0.10927 0.6351,-0.0729 0.25435,0.0364 0.61753,0.2178 0.88987,0.30851 0.27234,0.0907 0.45422,0.0911 0.76274,-0.78032 0.0209,-0.059 0.0472,-0.1451 0.0692,-0.21135 -0.42425,-0.41266 -0.5323,-0.62068 -0.55656,-0.82217 -0.0279,-0.2318 0.0274,-0.47274 -0.0744,-0.73226 -0.10181,-0.25951 -0.37049,-0.54728 -0.65319,-0.77411 -0.28271,-0.22684 -0.59788,-0.41231 -1.04283,-0.56069 -0.444937,-0.14837 -1.019737,-0.25991 -1.520317,-0.51935 -0.0982,-0.0509 -0.19254,-0.10852 -0.28577,-0.1695 z m 5.913327,5.14542 c -0.11417,0.15963 -0.22196,0.31345 -0.30644,0.45941 -0.39946,0.69014 -0.32192,1.27062 -0.25166,1.74304 0.0703,0.47243 0.14264,0.90848 -0.003,1.21698 -0.14523,0.30851 -0.50825,0.48977 -0.83509,0.65319 -0.32684,0.16342 -0.63162,0.31615 -0.84232,0.7121 -0.21071,0.39596 -0.35596,1.04951 -0.39223,1.57614 -0.0363,0.52662 0.0363,0.92608 0.23616,1.19837 0.19987,0.27229 0.54009,0.42387 0.82373,0.38447 0.28363,-0.0394 0.53777,-0.25729 0.81028,-0.29352 0.27252,-0.0362 0.56284,0.10863 0.83509,0.10852 0.27226,-10e-5 0.54224,-0.15395 0.75241,-0.14934 0.21017,0.005 0.39174,0.14994 0.64596,0.27698 0.25422,0.12705 0.59195,0.23937 0.76791,0.12868 0.17596,-0.1107 0.21637,-0.47359 0.23254,-0.89142 0.006,-0.15564 0.01,-0.32857 0.047,-0.51005 -0.0208,-0.0171 -0.0395,-0.0361 -0.0558,-0.0579 -0.13922,-0.18526 -0.12051,-0.55641 -0.15761,-1.25161 -0.0371,-0.6952 -0.1299,-1.71475 -0.31523,-2.49339 -0.18532,-0.77857 -0.47083,-1.33059 -1.1622,-2.03708 -0.23805,-0.24325 -0.52963,-0.50792 -0.82993,-0.7736 z m -33.134921,0.71366 c 0.799032,8e-5 1.597817,0.32716 2.41484,1.21698 0.817024,0.88978 1.63671,2.315 2.134754,3.49074 0.49804,1.17573 0.643104,2.04722 0.425297,2.53731 -0.21781,0.49009 -0.798964,0.59888 -1.289327,0.87127 -0.490367,0.27238 -0.889743,0.70813 -1.470712,1.07125 -0.580965,0.36312 -1.343233,0.65402 -2.251025,0.54518 -0.907792,-0.10883 -1.960926,-0.61767 -2.778125,-1.67069 -0.817199,-1.05306 -1.398201,-2.65071 -1.688786,-3.77652 -0.290584,-1.12581 -0.290836,-1.7796 -0.05478,-2.30632 0.23606,-0.52671 0.708358,-0.9263 1.107943,-1.12603 0.399582,-0.19972 0.725991,-0.19932 1.28881,-0.36277 0.562819,-0.16344 1.36208,-0.49049 2.161108,-0.4904 z m 43.042331,9.41492 c -0.0788,0.17716 -0.17112,0.33904 -0.24546,0.4992 -0.23605,0.508525 -0.27232,1.017115 -0.18139,1.380285 0.0909,0.36316 0.32684,0.59897 0.37207,0.8077 0.0452,0.20873 -0.0781,0.45587 -0.21601,0.58653 -0.1379,0.13065 -0.31914,0.20302 -0.48265,0.58446 -0.16352,0.38143 -0.30153,1.0368 -0.77722,1.61695 -0.47569,0.58016 -1.27457,1.01599 -1.89187,1.27021 -0.61731,0.25422 -1.05312,0.32655 -1.30742,0.1633 -0.25429,-0.16325 -0.32698,-0.5626 -0.52658,-0.85318 -0.1996,-0.29059 -0.52633,-0.47194 -0.9803,-0.54467 -0.45397,-0.0727 -1.03493,-0.0363 -1.74305,-0.1633 -0.70811,-0.12704 -1.53229,-0.41404 -2.0283,-0.52503 -0.496,-0.11099 -0.64148,-0.0381 -0.71416,-0.51005 -0.0727,-0.47193 -0.0727,-1.48892 0.0362,-2.23345 0.10892,-0.74454 0.32694,-1.21628 0.32711,-1.543065 1.7e-4,-0.32678 -0.19968,-0.49361 -0.77153,-0.51935 -0.57185,-0.0257 -1.47953,0.11944 -2.09703,0.48266 -0.6175,0.363215 -0.960227,0.971935 -1.351847,1.357545 -0.39163,0.38561 -0.86363,0.60355 -1.20872,0.98495 -0.34508,0.38141 -0.56276,0.92581 -1.12551,1.27072 -0.56275,0.34492 -1.47051,0.4903 -2.32389,0.5085 -0.85337,0.0182 -1.65241,-0.0906 -2.23345,-0.19947 -0.581038,-0.10892 -0.944298,-0.21807 -1.126028,-0.10904 -0.18174,0.10903 -0.18149,0.39954 0.07286,0.78083 0.25435,0.3813 0.76232,0.78077 1.143598,0.96222 0.38128,0.18145 0.63566,0.145 0.88987,0.29042 0.25421,0.14542 0.50851,0.47253 0.88987,0.70848 0.38135,0.23595 0.8896,0.38084 1.25263,0.88936 0.36304,0.50851 0.58081,1.38019 0.96222,1.83399 0.38141,0.4538 0.92867,0.4902 1.49035,0.79892 0.56168,0.30872 1.14277,0.88973 1.63297,1.57975 0.490207,0.69002 0.889777,1.48903 1.289327,1.97921 0.39955,0.49017 0.79863,0.67182 1.16169,0.68988 0.36305,0.0181 0.69033,-0.1274 0.85369,-0.36329 0.16336,-0.23589 0.16305,-0.59862 0.61702,-1.03456 0.45397,-0.43594 1.36173,-1.01735 1.88825,-1.61644 0.52652,-0.59909 0.67189,-1.216 0.99891,-1.45211 0.32702,-0.23611 0.83529,-0.0912 1.45262,-0.0186 0.61734,0.0726 1.34399,0.0729 2.05208,-0.0724 0.70808,-0.14529 1.39801,-0.43587 1.87017,-0.41754 0.47215,0.0183 0.72613,0.34503 0.9803,0.78083 0.25417,0.43579 0.50842,0.98051 0.78083,1.23455 0.2724,0.25403 0.56279,0.21765 0.85318,-0.091 0.29038,-0.30861 0.58088,-0.88978 1.07125,-1.28933 0.49036,-0.39955 1.18061,-0.61721 1.74356,-0.70797 0.56295,-0.0907 0.99883,-0.0545 1.43454,-0.12712 0.43571,-0.0727 0.8715,-0.25414 0.94413,-0.72606 0.0726,-0.47191 -0.21826,-1.23465 -0.72657,-1.70687 -0.50832,-0.47222 -1.23435,-0.654 -1.8154,-0.85369 -0.58104,-0.1997 -1.01713,-0.41745 -1.36219,-0.72606 -0.34506,-0.3086 -0.61567,-0.73396 -0.64389,-1.19321 -0.0282,-0.45924 0.16428,-1.03645 0.48576,-1.38337 0.32149,-0.34693 0.79354,-0.52878 0.82993,-0.80099 0.0364,-0.27221 -0.36262,-0.63525 -0.63511,-1.39785 -0.0806,-0.225525 -0.14883,-0.486605 -0.17053,-0.767915 -0.26444,0.10437 -0.48494,0.22218 -0.67954,0.26252 -0.2687,0.0557 -0.49123,-0.0372 -0.73226,-0.17622 -0.091,-0.0525 -0.1853,-0.1167 -0.27905,-0.18087 z m 13.98726,4.896865 c -0.0413,0.63002 -0.2144,1.091 -0.38396,1.46555 -0.32138,0.70991 -0.64816,1.18197 -1.04748,1.418 -0.39932,0.23602 -0.87115,0.23576 -1.27072,0.34468 -0.39958,0.10892 -0.70983,0.31579 -0.75448,0.68471 -0.0447,0.36892 0.20945,0.87723 0.55449,1.11311 0.34504,0.23588 0.78113,0.19971 1.10794,0.36329 0.32682,0.16358 0.54474,0.52689 0.94413,0.49041 0.2551,-0.0233 0.58509,-0.20823 0.99787,-0.26872 -0.0625,-0.44386 0.087,-0.87013 0.20878,-1.26917 0.1361,-0.44598 0.24722,-0.89088 0.30282,-1.31724 0.0557,-0.42637 0.0556,-0.83449 0,-1.2516 -0.0556,-0.41711 -0.16671,-0.84337 -0.38912,-1.29759 -0.0744,-0.15186 -0.16718,-0.31078 -0.27027,-0.47543 z m -47.140788,0.41496 c 0.234102,-8.2e-4 0.424467,0.10791 0.5333,0.38034 0.145111,0.36325 0.145267,1.05338 -0.01809,1.43454 -0.163355,0.38116 -0.476634,0.52063 -0.574126,0.70538 -0.09749,0.18475 0.04767,0.40255 0.283704,0.80202 0.236035,0.39947 0.562727,0.98019 0.59893,1.56115 0.0362,0.58095 -0.217977,1.16198 -0.399459,1.3255 -0.181482,0.16352 -0.290378,-0.0907 -0.562756,-0.10904 -0.272381,-0.0184 -0.707865,0.19985 -0.980302,0.59945 -0.27244,0.3996 -0.381381,0.98072 -0.54467,1.12603 -0.163289,0.14531 -0.381455,-0.14553 -0.762744,-0.29094 -0.381289,-0.14541 -0.925776,-0.14499 -1.397847,-0.21756 -0.472074,-0.0726 -0.871636,-0.21793 -1.144117,-0.54467 -0.272478,-0.32673 -0.417795,-0.83523 -0.762744,-1.01699 -0.344947,-0.18176 -0.889744,-0.0365 -1.162203,-0.38137 -0.272459,-0.34484 -0.272124,-1.21629 -0.05426,-2.03347 0.217864,-0.81718 0.668052,-1.68121 1.096574,-1.97559 0.42852,-0.29438 0.864355,-0.0763 1.463476,-0.0946 0.599124,-0.0183 1.362174,-0.2723 1.888774,-0.41754 0.526602,-0.14525 0.816771,-0.18185 1.161686,-0.32712 0.344918,-0.14526 0.744739,-0.39968 1.089856,-0.49041 0.08628,-0.0227 0.168979,-0.0349 0.247014,-0.0351 z m -14.170195,0.68368 c 0.07588,-0.004 0.161782,0.012 0.259416,0.0506 0.39053,0.15445 1.007943,0.62666 1.370975,1.18959 0.363037,0.56292 0.47196,1.21691 0.308509,1.79782 -0.163452,0.58091 -0.599563,1.08886 -0.962732,1.72444 -0.363173,0.63558 -0.653433,1.39845 -0.889352,1.79783 -0.235915,0.39938 -0.41757,0.43545 -0.944128,-0.0909 -0.526558,-0.52641 -1.398094,-1.61551 -1.452624,-2.34198 -0.05454,-0.72647 0.707883,-1.08979 1.143599,-1.6707 0.435716,-0.5809 0.549618,-1.41519 0.692464,-1.88774 0.107135,-0.35441 0.246246,-0.55579 0.473873,-0.56896 z m -8.425325,5.12269 c 1.05505,0.005 1.473824,0.11652 2.156974,0.78393 0.780736,0.76275 1.90685,2.25181 2.469616,3.37757 0.562773,1.12576 0.562721,1.88852 0.272335,2.25154 -0.290379,0.36303 -0.871481,0.32674 -1.343587,0.12713 -0.4721,-0.19961 -0.835319,-0.56274 -1.18029,-0.81701 -0.344964,-0.25427 -0.671581,-0.39985 -0.944128,-0.29093 -0.272547,0.10891 -0.490665,0.4724 -0.808736,0.8108 -0.318078,0.3384 -0.771462,0.67799 -1.479497,0.80512 -0.708028,0.12713 -1.688112,0.0545 -2.922819,-0.41755 -1.2347,-0.47202 -2.723586,-1.3437 -3.484541,-1.94303 -0.760962,-0.59933 -0.801303,-0.998 -0.710551,-1.61541 0.09075,-0.61741 0.308654,-1.48922 0.526583,-2.0159 0.217922,-0.52661 0.436015,-0.70799 1.761649,-0.83509 1.325635,-0.12709 3.758507,-0.19993 5.192965,-0.21807 0.179308,-0.002 0.343303,-0.004 0.494027,-0.003 z m 72.167687,4.72788 c -0.378859,0.61186 -0.810829,1.07794 -1.329639,1.44073 -0.6083,0.42538 -1.3711,0.7525 -2.02468,0.84336 -0.65359,0.0909 -1.19821,-0.0544 -1.59784,0 -0.39962,0.0544 -0.65388,0.30863 -0.63562,0.63562 0.0183,0.32699 0.30859,0.72658 0.54467,0.99891 0.23609,0.27233 0.41802,0.41731 0.47232,0.61702 0.0543,0.1997 -0.0187,0.4538 0.0904,0.68988 0.10912,0.23607 0.40008,0.45401 0.65422,0.76274 0.25415,0.30873 0.47197,0.70846 0.68988,0.88987 0.21792,0.1814 0.43564,0.14519 0.59893,-0.14521 0.16329,-0.2904 0.27224,-0.83539 0.52658,-1.12603 0.10879,-0.1243 0.24494,-0.19805 0.3912,-0.21653 -0.0136,-0.13383 -0.0178,-0.26059 0.003,-0.36483 0.0673,-0.34382 0.35388,-0.5157 0.62787,-0.68937 0.27401,-0.17359 0.56054,-0.36462 0.75087,-0.63975 0.19033,-0.27513 0.301379,-0.64616 0.347779,-1.1374 0.0464,-0.49123 0.0276,-1.1028 -0.0186,-1.70532 -0.0219,-0.28483 -0.0513,-0.5716 -0.091,-0.85369 z m -54.45404,4.02249 c 0.285999,10e-6 0.567508,0.0321 0.803568,0.0775 0.472124,0.0909 0.762334,0.23601 0.907439,0.52659 0.145103,0.29057 0.145257,0.72642 -0.03617,0.92604 -0.181431,0.19962 -0.544644,0.16306 -0.926042,0.23564 -0.381396,0.0726 -0.780633,0.25411 -1.252636,0.27234 -0.472005,0.0182 -1.016809,-0.12696 -1.289327,-0.3266 -0.272519,-0.19964 -0.272525,-0.45393 -0.09095,-0.76274 0.181574,-0.30882 0.544614,-0.67168 1.053166,-0.83509 0.254276,-0.0817 0.544958,-0.1137 0.830957,-0.11369 z" /></g><g
         id="g11436"
         transform="translate(53.275086,-79.49153)"><path
           id="path11426"
           style="display:inline;opacity:0.247449;mix-blend-mode:normal;fill:#000000;stroke-width:4.01233;stroke-linecap:round;filter:url(#filter2597)"
           d="m 65.486918,112.12855 c -0.63088,-0.004 -1.33034,0.14665 -2.01331,0.4594 -0.91064,0.417 -1.78404,1.12044 -2.39779,1.74563 -0.4246,0.43252 -0.72056,0.82284 -0.95911,1.15032 -0.0021,0.003 -0.0036,0.005 -0.0057,0.008 -0.08449,0.11608 -0.16228,0.22282 -0.23409,0.32039 -0.01608,0.0218 -0.03627,0.0497 -0.05168,0.0703 -2e-4,2.8e-4 -3.1e-4,7.6e-4 -5.1e-4,0.001 -0.0099,0.0132 -0.01869,0.0229 -0.02843,0.0357 -0.05374,0.0706 -0.10542,0.13632 -0.15399,0.19379 -0.04712,0.0556 -0.09196,0.10582 -0.13436,0.14831 -0.0033,0.003 -0.0066,0.006 -0.0098,0.009 -0.09308,0.0918 -0.17511,0.15167 -0.24649,0.17415 v 5.2e-4 c -0.02658,0.008 -0.05227,0.0134 -0.07597,0.0114 -0.15333,-0.0128 -0.24767,-0.24711 -0.6134,-0.54674 -0.36574,-0.29963 -1.00321,-0.66401 -1.68775,-0.84646 -0.68454,-0.18247 -1.41595,-0.1827 -2.15956,-0.0134 -0.48784,0.11105 -0.98046,0.29667 -1.44177,0.58292 -0.05446,0.0338 -0.10823,0.0687 -0.16175,0.10541 -0.0272,0.0187 -0.05419,0.0379 -0.08113,0.0574 -0.05488,0.0395 -0.10911,0.0807 -0.16278,0.1235 -0.02343,0.0187 -0.04659,0.0375 -0.06976,0.0568 -0.06462,0.0539 -0.12867,0.11001 -0.19121,0.16898 -0.0092,0.009 -0.01879,0.016 -0.0279,0.0248 v 5.2e-4 c -0.63729,0.61219 -1.15667,1.49767 -1.46348,2.07067 -0.07658,0.14304 -0.14038,0.26722 -0.19637,0.37414 -0.05595,0.10671 -0.10426,0.19706 -0.15141,0.27337 l -5.2e-4,5.2e-4 c -0.0236,0.0383 -0.04668,0.0727 -0.07028,0.10438 -0.07087,0.095 -0.14507,0.16206 -0.24236,0.21084 -0.03243,0.0163 -0.06718,0.0306 -0.10439,0.0434 -0.26044,0.0898 -0.6285,0.11121 -0.96945,0.28215 -0.14611,0.0733 -0.28712,0.17461 -0.42013,0.29869 -0.08857,0.0827 -0.17378,0.17534 -0.25424,0.27751 v 5.1e-4 c -0.04019,0.051 -0.07949,0.10424 -0.11731,0.15968 v 5.2e-4 c -0.0757,0.11102 -0.14703,0.23073 -0.21187,0.3576 -0.25965,0.50802 -0.42495,1.1331 -0.51935,1.53686 -0.08251,0.35292 -0.11124,0.53705 -0.2589,0.71675 -0.02104,0.0255 -0.04443,0.0512 -0.0708,0.077 l -5.1e-4,5.2e-4 c -0.007,0.007 -0.01742,0.0148 -0.02481,0.0217 -0.04863,0.0455 -0.10266,0.0915 -0.16433,0.14211 -0.07108,0.0583 -0.14878,0.12154 -0.22686,0.19224 -0.0191,0.0173 -0.03773,0.037 -0.05684,0.0553 -0.01992,0.0191 -0.0402,0.0372 -0.05995,0.0574 -0.07754,0.0793 -0.15321,0.1678 -0.22117,0.26872 -0.034,0.0505 -0.06609,0.10371 -0.0956,0.16071 v 5.2e-4 c -0.02663,0.0515 -0.05092,0.10649 -0.07338,0.1633 -0.0067,0.0169 -0.01281,0.0344 -0.01912,0.0517 -0.01544,0.0423 -0.02959,0.0859 -0.0429,0.13074 -0.0056,0.0189 -0.01129,0.0375 -0.01653,0.0568 -0.01673,0.0617 -0.03199,0.12462 -0.04496,0.19017 -0.0034,0.017 -0.0057,0.035 -0.0088,0.0522 -0.0089,0.0493 -0.01738,0.0993 -0.02428,0.15038 -0.0033,0.0242 -0.006,0.0488 -0.0088,0.0734 -0.0058,0.0505 -0.01102,0.1016 -0.01499,0.15348 -0.0018,0.0241 -0.0037,0.048 -0.0052,0.0724 -0.0042,0.0709 -0.0073,0.14256 -0.0083,0.21549 -1.7e-4,0.0125 5.9e-4,0.0252 5.2e-4,0.0377 -0.0014,0.15969 0.0046,0.32326 0.0186,0.48834 10e-6,1.7e-4 -2e-5,3.5e-4 0,5.2e-4 0.0074,0.0877 0.01694,0.17609 0.02842,0.26407 2e-5,1.7e-4 -2e-5,3.4e-4 0,5.1e-4 0.03453,0.26426 0.08816,0.52681 0.16226,0.77205 0.02476,0.0818 0.05171,0.16143 0.08114,0.23874 5e-5,1.5e-4 -6e-5,3.7e-4 0,5.2e-4 0.08819,0.23204 0.19738,0.44149 0.33021,0.61237 0.04428,0.057 0.09144,0.10935 0.14004,0.15813 0.09721,0.0975 0.20136,0.17949 0.30593,0.24856 1.1e-4,7e-5 4e-4,-8e-5 5.1e-4,0 0.05216,0.0344 0.10404,0.0662 0.15555,0.0946 1.2e-4,7e-5 3.9e-4,-7e-5 5.2e-4,0 0.05148,0.0284 0.10222,0.0539 0.15141,0.077 1.3e-4,6e-5 3.8e-4,-7e-5 5.2e-4,0 0.04916,0.0231 0.09689,0.0441 0.14211,0.0625 0.0907,0.0371 0.17182,0.0656 0.23667,0.0884 v -5.2e-4 c 0.12942,0.0454 0.19428,0.0687 0.22531,0.11576 0.0077,0.0117 0.0136,0.0249 0.01757,0.0403 5e-5,1.6e-4 -4e-5,3.5e-4 0,5.1e-4 0.01166,0.0456 0.0089,0.11257 0.0047,0.21549 -9e-5,0.002 1e-4,0.003 0,0.005 -1e-5,4.4e-4 2e-5,5.9e-4 0,0.001 -0.0029,0.0716 -0.0065,0.16087 -0.0047,0.26613 10e-6,2e-4 0,3.1e-4 0,5.2e-4 9.3e-4,0.0525 0.0033,0.10894 0.0078,0.16898 2e-5,1.8e-4 -10e-6,3.3e-4 0,5.1e-4 0.0044,0.0603 0.01114,0.12432 0.02067,0.19172 3e-5,1.8e-4 -2e-5,3.4e-4 0,5.2e-4 0.0096,0.0674 0.02203,0.13781 0.03825,0.21187 0.0068,0.0309 0.01719,0.0646 0.02532,0.0966 0.01143,0.0451 0.02126,0.0892 0.03565,0.13642 0.02448,0.0802 0.05307,0.16327 0.08734,0.24908 8e-5,2.2e-4 4.3e-4,3.1e-4 5.1e-4,5.2e-4 0.0343,0.0858 0.07372,0.17467 0.11938,0.26562 0.07341,0.14628 0.16635,0.29898 0.26871,0.45268 0.02523,0.0379 0.04762,0.0752 0.07442,0.11318 8e-5,1.2e-4 -9e-5,3.9e-4 0,5.1e-4 0.06772,0.0958 0.14057,0.19181 0.21756,0.28629 0.06738,0.0827 0.13924,0.164 0.2129,0.24391 0.01051,0.0114 0.01986,0.0233 0.03049,0.0346 1.7e-4,1.7e-4 3.5e-4,3.3e-4 5.2e-4,5.1e-4 0.08082,0.0861 0.16557,0.1692 0.2527,0.2496 0.28022,0.25869 0.59011,0.48329 0.91415,0.63717 0.21956,0.10426 0.4453,0.17564 0.66973,0.22479 0.09401,0.0206 0.18765,0.0369 0.2806,0.0501 0.22187,0.0316 0.4391,0.045 0.64389,0.0475 0.29721,0.004 0.56832,-0.013 0.78962,-0.0227 0.22129,-0.01 0.39269,-0.0124 0.54053,0.0103 1.6e-4,2e-5 3.6e-4,-3e-5 5.2e-4,0 0.0842,0.013 0.1604,0.0366 0.23409,0.0693 0.01226,0.005 0.02508,0.009 0.03721,0.015 0.04279,0.0215 0.08476,0.0471 0.12712,0.0775 0.04221,0.0303 0.08443,0.0654 0.12816,0.10593 0.04373,0.0406 0.08871,0.0864 0.13591,0.1385 0.0472,0.0521 0.09669,0.11062 0.14883,0.17414 1.6e-4,2.1e-4 3.5e-4,3.2e-4 5.1e-4,5.2e-4 0.05201,0.0634 0.10661,0.13154 0.16382,0.20361 1.6e-4,2e-4 3.6e-4,3.1e-4 5.2e-4,5.1e-4 0.11463,0.1444 0.23987,0.30379 0.37723,0.46716 2.6e-4,3.1e-4 2.6e-4,7.2e-4 5.2e-4,10e-4 0.06855,0.0815 0.14031,0.16371 0.21497,0.24598 2.6e-4,2.8e-4 2.7e-4,7.5e-4 5.2e-4,0.001 0.07469,0.0823 0.15299,0.16403 0.2341,0.24442 0.16304,0.16176 0.33843,0.31731 0.52916,0.45527 0.10594,0.0766 0.21789,0.14742 0.33332,0.21498 0.08503,0.0498 0.17213,0.0976 0.26199,0.14263 0.66475,0.33272 1.45795,0.53691 2.32596,0.63562 0.57237,0.0651 1.17697,0.0847 1.76113,0.0651 0.29209,-0.01 0.5791,-0.0294 0.85422,-0.0579 0.27511,-0.0285 0.53855,-0.066 0.78341,-0.11162 0.3671,-0.0684 0.69398,-0.15565 0.9803,-0.24753 1.6e-4,-5e-5 3.6e-4,5e-5 5.2e-4,0 0.47738,-0.15323 0.84162,-0.31895 1.08934,-0.4315 0.34681,-0.15758 0.48053,-0.21718 0.6351,-0.15968 0.01169,0.004 0.02415,0.0108 0.03617,0.0165 0.01053,0.005 0.02059,0.009 0.03153,0.015 1.4e-4,8e-5 3.7e-4,-8e-5 5.1e-4,0 0.04723,0.0261 0.09841,0.0619 0.1602,0.10181 0.03089,0.0199 0.0641,0.0407 0.10077,0.062 2.2e-4,1.2e-4 3e-4,3.9e-4 5.2e-4,5.1e-4 0.18338,0.10636 0.44798,0.22026 0.88315,0.2527 0.08382,0.006 0.17463,0.009 0.26975,0.009 0.0036,2e-5 0.0067,5.1e-4 0.01033,5.2e-4 0.19817,5e-4 0.41735,-0.011 0.64441,-0.032 1.7e-4,-10e-6 3.5e-4,2e-5 5.2e-4,0 0.22708,-0.0211 0.46202,-0.0518 0.69194,-0.0899 0.11505,-0.0191 0.22916,-0.04 0.34003,-0.0625 0.11069,-0.0225 0.21868,-0.0465 0.32195,-0.0718 0.10343,-0.0254 0.20233,-0.0519 0.29507,-0.0796 0.09274,-0.0276 0.17979,-0.0565 0.26097,-0.0858 0.4057,-0.14626 0.67367,-0.30683 0.87281,-0.4284 2.3e-4,-1.4e-4 2.9e-4,-3.7e-4 5.2e-4,-5.1e-4 0.07936,-0.0485 0.14798,-0.0905 0.2098,-0.12299 0.24802,-0.13016 0.38955,-0.10423 0.59015,0.0522 0.15036,0.11724 0.33423,0.30752 0.65526,0.55449 2.1e-4,1.6e-4 3e-4,3.5e-4 5.1e-4,5.1e-4 0.10715,0.0824 0.22941,0.17122 0.37104,0.26562 0.14146,0.0943 0.30239,0.19395 0.48266,0.29352 2.1e-4,1.2e-4 3e-4,4e-4 5.1e-4,5.2e-4 0.37216,0.20552 0.82941,0.4085 1.37408,0.55707 0.09901,0.027 0.20103,0.0519 0.30593,0.0749 0.15787,0.0347 0.32058,0.0656 0.49195,0.0894 0.01053,0.001 0.02199,0.002 0.03256,0.004 0.12325,0.0165 0.25016,0.0296 0.37931,0.0403 0.81968,0.0682 1.7381,0.0251 2.52232,-0.0698 0.30609,-0.037 0.59156,-0.0819 0.84233,-0.13075 0.12538,-0.0244 0.24205,-0.0498 0.35088,-0.076 0.76185,-0.18305 1.13761,-0.40066 1.39578,-0.5488 2.3e-4,-1.4e-4 2.9e-4,-3.9e-4 5.2e-4,-5.2e-4 0.03349,-0.0192 0.05943,-0.032 0.0894,-0.0486 0.04953,-0.0274 0.09958,-0.0545 0.14263,-0.0729 0.01673,-0.007 0.03397,-0.0152 0.05012,-0.0207 0.13843,-0.047 0.26008,-0.0318 0.43718,0.0904 0.24794,0.17112 0.60436,0.55157 1.02165,0.87075 0.05961,0.0456 0.12045,0.09 0.18242,0.13229 0.12393,0.0846 0.25247,0.16089 0.38137,0.22945 0.26753,0.14228 0.53543,0.24878 0.77308,0.32452 0.09779,0.0312 0.1899,0.0572 0.2744,0.0775 0.007,0.002 0.01587,0.005 0.02274,0.006 0.29204,0.0683 0.48485,0.0708 0.6475,0.10077 0.05422,0.01 0.10486,0.0233 0.15503,0.0429 0.05017,0.0196 0.09967,0.0454 0.15296,0.076 0.1066,0.0611 0.22863,0.14011 0.40308,0.22066 0.08723,0.0403 0.18739,0.0809 0.30541,0.11989 0.05901,0.0195 0.12223,0.0387 0.18965,0.0568 1.7e-4,4e-5 3.5e-4,-5e-5 5.2e-4,0 0.01288,0.003 0.02765,0.006 0.04082,0.01 0.46934,0.12093 1.11781,0.19296 1.81074,0.0377 0.30532,-0.0684 0.61734,-0.18015 0.91209,-0.31419 2.1e-4,-1e-4 3.1e-4,-4.3e-4 5.2e-4,-5.2e-4 0.19675,-0.0895 0.3855,-0.18895 0.55965,-0.29249 0.08723,-0.0519 0.17074,-0.10453 0.2496,-0.15761 0.07832,-0.0527 0.15185,-0.10527 0.22014,-0.15762 4.1e-4,-3.1e-4 6.3e-4,-7.2e-4 0.001,-10e-4 0.02873,-0.022 0.05233,-0.0433 0.07906,-0.0651 0.03664,-0.0299 0.07541,-0.0602 0.10801,-0.0894 4.9e-4,-4.4e-4 0.0011,-6e-4 0.0015,-0.001 0.03691,-0.0331 0.06671,-0.0643 0.09818,-0.0961 0.01682,-0.017 0.03682,-0.0351 0.05219,-0.0517 0.04409,-0.0477 0.08279,-0.0936 0.11628,-0.13798 0.03335,-0.0442 0.06164,-0.0869 0.0863,-0.12764 1.3e-4,-2.1e-4 3.8e-4,-3e-4 5.1e-4,-5.1e-4 0.02474,-0.0409 0.04522,-0.0797 0.06305,-0.11679 0.03587,-0.0745 0.05974,-0.14066 0.07906,-0.19844 0.01918,-0.0574 0.03401,-0.10616 0.05168,-0.14521 7e-5,-1.5e-4 -7e-5,-3.7e-4 0,-5.2e-4 0.0089,-0.0196 0.01858,-0.0364 0.02946,-0.0512 0.01087,-0.0148 0.02275,-0.027 0.03669,-0.0372 0.02787,-0.0204 0.06306,-0.0319 0.10955,-0.0351 0.02324,-0.002 0.04906,-0.001 0.07855,0.001 1.9e-4,1e-5 3.2e-4,-2e-5 5.1e-4,0 0.0032,2.6e-4 0.0075,0.001 0.01086,0.002 0.08739,0.008 0.20243,0.0316 0.36018,0.0693 0.43668,0.10424 1.1918,0.3123 1.9234,0.2992 0.45753,-0.008 0.90284,-0.10223 1.26555,-0.22892 0.14478,-0.0506 0.27668,-0.10609 0.39068,-0.16382 2.2e-4,-1.1e-4 2.9e-4,-4e-4 5.1e-4,-5.2e-4 0.05683,-0.0288 0.10909,-0.0575 0.15658,-0.0868 0.09536,-0.0589 0.1698,-0.11798 0.22841,-0.17674 l 5.2e-4,-5.1e-4 c 0.0019,-0.002 0.0033,-0.004 0.0052,-0.006 0.05541,-0.0566 0.09684,-0.11345 0.12764,-0.17001 8e-5,-1.4e-4 -8e-5,-3.8e-4 0,-5.2e-4 0.06372,-0.1172 0.08464,-0.23382 0.10232,-0.35088 5e-5,-3.4e-4 -5e-5,-7e-4 0,-0.001 0.0088,-0.0584 0.01705,-0.11683 0.0279,-0.17363 4e-5,-1.7e-4 -3e-5,-3.5e-4 0,-5.1e-4 0.01087,-0.0568 0.02458,-0.11187 0.04445,-0.16382 5e-5,-1.5e-4 -6e-5,-3.7e-4 0,-5.2e-4 0.0099,-0.0259 0.02168,-0.0508 0.03514,-0.0749 6e-5,-1.2e-4 -7e-5,-3.9e-4 0,-5.1e-4 0.01348,-0.0241 0.02914,-0.0469 0.04702,-0.0687 8e-5,-9e-5 -7e-5,-4.3e-4 0,-5.2e-4 0.03595,-0.0439 0.08163,-0.0827 0.14056,-0.11524 0.23621,-0.1304 0.68366,-0.15621 1.13275,-0.32556 0.04904,-0.0185 0.09752,-0.0397 0.14624,-0.0615 0.02468,-0.011 0.0489,-0.0233 0.07338,-0.0351 0.0045,-0.002 0.0089,-0.005 0.01344,-0.007 0.0249,-0.0122 0.04982,-0.0242 0.07441,-0.0372 0.002,-0.001 0.0042,-0.002 0.0062,-0.003 0.02744,-0.0146 0.0542,-0.0304 0.08114,-0.046 0.01746,-0.0101 0.03497,-0.02 0.05219,-0.0305 0.03269,-0.02 0.0645,-0.0407 0.09612,-0.062 0.01698,-0.0115 0.0335,-0.0233 0.05012,-0.0351 0.02908,-0.0207 0.05744,-0.0417 0.08527,-0.0636 0.01798,-0.0141 0.03531,-0.0283 0.05271,-0.0429 0.02442,-0.0204 0.04868,-0.0408 0.07183,-0.062 0.01449,-0.0133 0.0279,-0.0272 0.04186,-0.0408 0.02609,-0.0254 0.05243,-0.0505 0.07648,-0.077 0.07367,-0.0811 0.13778,-0.16639 0.1881,-0.2558 l 5.2e-4,-5.2e-4 c 0.02647,-0.047 0.04918,-0.095 0.06873,-0.14366 v -5.1e-4 c 0.01958,-0.0488 0.03616,-0.0981 0.04961,-0.1478 0.01346,-0.0496 0.02388,-0.0997 0.03204,-0.14934 0.0081,-0.0495 0.01389,-0.0986 0.01757,-0.14728 v -5.2e-4 c 0.0037,-0.0487 0.0051,-0.0966 0.0052,-0.14366 v -5.1e-4 c 4e-5,-0.0471 -0.0014,-0.0933 -0.0041,-0.13798 v -5.2e-4 c -0.0055,-0.0894 -0.01564,-0.17277 -0.02739,-0.24753 v -5.1e-4 c -0.01174,-0.0747 -0.02543,-0.1404 -0.03772,-0.19844 v -5.2e-4 c -0.03694,-0.17444 -0.06547,-0.27919 -0.02119,-0.34778 0.04429,-0.0685 0.16173,-0.10095 0.31213,-0.22789 0.0249,-0.0211 0.05097,-0.045 0.07751,-0.0718 0.02664,-0.027 0.05425,-0.0569 0.08217,-0.091 0.08401,-0.10252 0.17298,-0.24057 0.25269,-0.40308 0.0265,-0.054 0.05206,-0.11077 0.07597,-0.17002 v -5.1e-4 c 0.02402,-0.0596 0.04632,-0.12141 0.06666,-0.18552 0.02025,-0.0638 0.0387,-0.12931 0.05426,-0.19689 v -5.2e-4 c 0.01555,-0.0676 0.02845,-0.13706 0.03824,-0.20773 v -5.2e-4 c 0.0098,-0.0707 0.01666,-0.14243 0.01964,-0.21549 v -5.2e-4 c 0.0027,-0.0678 0.0013,-0.13715 -0.0026,-0.20722 -0.0013,-0.0242 -0.0046,-0.0489 -0.0067,-0.0734 -0.0043,-0.0488 -0.009,-0.098 -0.01654,-0.1478 -0.004,-0.0263 -0.0096,-0.053 -0.01447,-0.0796 -0.0084,-0.0459 -0.01772,-0.0919 -0.02894,-0.13849 -0.0078,-0.0323 -0.01623,-0.0646 -0.02532,-0.0971 -0.01221,-0.0437 -0.02618,-0.0876 -0.04082,-0.13178 -0.01053,-0.0318 -0.02075,-0.0635 -0.03256,-0.0956 -0.01683,-0.0457 -0.03584,-0.0918 -0.05529,-0.13797 -0.01409,-0.0334 -0.02742,-0.0666 -0.0429,-0.10026 -0.02595,-0.0565 -0.05535,-0.11351 -0.08526,-0.17053 -0.0113,-0.0215 -0.02069,-0.043 -0.03256,-0.0646 -0.0401,-0.073 -0.08353,-0.1464 -0.13022,-0.22015 l -5.2e-4,5.2e-4 c -0.06049,-0.0955 -0.12506,-0.19145 -0.19689,-0.28784 -0.51533,-0.69155 -1.34172,-1.44692 -2.10891,-1.74666 -0.76719,-0.29974 -1.47533,-0.14343 -1.90014,-0.13023 -0.42481,0.0132 -0.56621,-0.11708 -0.90848,-0.4687 -0.34227,-0.35163 -0.88526,-0.92453 -1.68775,-1.35444 -0.80249,-0.4299 -1.86449,-0.71624 -2.45463,-0.92449 -0.59013,-0.20825 -0.70836,-0.33877 -0.79116,-0.62529 -0.08278,-0.28652 -0.1298,-0.72911 -0.3421,-1.18494 -0.2123,-0.45583 -0.59006,-0.92467 -0.94413,-1.13326 -0.35407,-0.20855 -0.68432,-0.15654 -0.86145,-0.19534 -0.17712,-0.0388 -0.20102,-0.16912 -0.555,-0.92449 -0.35399,-0.75538 -1.03843,-2.13543 -1.93528,-2.93005 -0.89685,-0.7946 -2.00121,-1.00243 -3.26647,-0.88574 -0.47096,0.0434 -0.96273,0.13226 -1.44642,0.25528 v -5.1e-4 c -0.15803,0.0402 -0.31446,0.0851 -0.46974,0.13229 -0.01395,0.004 -0.02794,0.008 -0.04186,0.0124 -0.14649,0.0452 -0.29094,0.093 -0.43305,0.14366 -0.02141,0.008 -0.04228,0.0155 -0.06356,0.0233 -0.1257,0.0458 -0.24926,0.0935 -0.37001,0.14314 -0.01839,0.008 -0.03702,0.0151 -0.05529,0.0227 -0.13286,0.0556 -0.26155,0.113 -0.38654,0.1726 -0.01688,0.008 -0.0334,0.0162 -0.05012,0.0243 -0.12719,0.0617 -0.25107,0.12492 -0.36794,0.19016 l -5.2e-4,5.2e-4 c -0.12517,0.0699 -0.24388,0.1413 -0.35657,0.21394 l -5.1e-4,5.2e-4 c -0.11287,0.0728 -0.21934,0.14637 -0.3204,0.22014 -0.10107,0.0738 -0.19628,0.14719 -0.28628,0.22014 l -5.2e-4,5.2e-4 c -0.08979,0.0728 -0.17423,0.14474 -0.25373,0.21497 l -5.2e-4,5.2e-4 c -0.31842,0.28134 -0.55727,0.53515 -0.74,0.70435 -0.36569,0.33854 -0.50708,0.33884 -0.81391,0.0786 -0.0754,-0.0639 -0.16216,-0.14529 -0.25683,-0.23461 3e-5,3.5e-4 -3e-5,6.8e-4 0,0.001 -0.29129,-0.27475 -0.66387,-0.63336 -1.05988,-0.85421 -0.39987,-0.223 -0.83628,-0.32063 -1.17874,-0.36639 v -5.1e-4 c -0.10681,-0.0142 -0.20628,-0.0243 -0.29042,-0.0305 -0.35411,-0.0261 -0.47627,0.001 -0.58033,-0.19431 -0.03591,-0.0675 -0.07367,-0.16957 -0.11627,-0.28628 -0.03425,-0.0946 -0.07628,-0.20324 -0.12506,-0.32557 -0.0189,-0.0472 -0.03487,-0.0902 -0.05684,-0.14107 -0.02159,-0.0501 -0.04466,-0.10154 -0.06977,-0.15503 -0.0013,-0.003 -0.0028,-0.006 -0.0041,-0.009 -0.03673,-0.0779 -0.07593,-0.15796 -0.12144,-0.24236 -0.29495,-0.54699 -0.79094,-1.2239 -1.33377,-1.77095 -0.54284,-0.54705 -1.13245,-0.96401 -1.89963,-1.10743 -0.19179,-0.0359 -0.39483,-0.0548 -0.60513,-0.0563 z"
           transform="rotate(-10.082757,63.263031,124.16322)" /><g
           id="g11434"
           transform="matrix(1.2535118,-0.22289527,0.24596681,1.3832608,-146.69649,-32.510468)"><path
             style="display:inline;opacity:1;fill:#fafafa;fill-opacity:1;stroke-width:3;stroke-linecap:round"
             d="m 130.67899,139.3596 c -0.20377,-0.0648 -0.61163,-0.1946 -0.88983,-0.51894 -0.2782,-0.32433 -0.42651,-0.84342 -0.47291,-1.34402 -0.0464,-0.50061 0.009,-0.9826 0.19466,-1.30718 0.18545,-0.32458 0.50061,-0.49143 0.6674,-0.6396 0.16678,-0.14818 0.18531,-0.27795 0.25946,-0.56533 0.0742,-0.28739 0.20392,-0.73232 0.40787,-1.09392 0.20396,-0.3616 0.48204,-0.63968 0.78807,-0.77873 0.30603,-0.13904 0.63973,-0.13904 0.8435,-0.23166 0.20377,-0.0926 0.27793,-0.27802 0.51895,-0.68593 0.24102,-0.4079 0.64887,-1.03822 1.14952,-1.47394 0.50064,-0.43573 1.09388,-0.67674 1.67793,-0.79721 0.58405,-0.12048 1.15876,-0.12048 1.69642,0.009 0.53766,0.12985 1.03821,0.3894 1.32548,0.60267 0.28727,0.21328 0.36142,0.38013 0.48187,0.38923 0.12044,0.009 0.28728,-0.13921 0.50973,-0.408 0.22245,-0.26879 0.50053,-0.6581 0.98259,-1.10308 0.48206,-0.44499 1.168,-0.94553 1.88299,-1.2423 0.71499,-0.29676 1.45426,-0.38917 2.05683,-0.28709 0.60257,0.10208 1.06603,0.39869 1.4924,0.78807 0.42637,0.38937 0.81568,0.87138 1.04734,1.26071 0.23166,0.38933 0.30581,0.68596 0.38754,0.82518 0.0817,0.13922 0.17795,0.11998 0.45608,0.13856 0.27814,0.0186 0.74161,0.0742 1.15409,0.28289 0.41248,0.20868 0.79252,0.58873 1.03353,0.77398 0.24101,0.18526 0.35225,0.18526 0.63947,-0.0557 0.28723,-0.24101 0.7507,-0.72302 1.53871,-1.12164 0.78801,-0.39862 1.90033,-0.71378 2.89378,-0.79689 0.99344,-0.0831 1.8617,0.0647 2.56612,0.63026 0.70443,0.56558 1.24205,1.54813 1.52008,2.08578 0.27803,0.53765 0.29656,0.6303 0.43568,0.65795 0.13913,0.0276 0.39867,-0.009 0.67677,0.13903 0.2781,0.14847 0.57472,0.48217 0.74147,0.80661 0.16674,0.32444 0.20382,0.6396 0.26884,0.84354 0.065,0.20393 0.15768,0.29659 0.62119,0.44481 0.46351,0.14822 1.29774,0.35215 1.92806,0.65814 0.63031,0.30599 1.05671,0.71384 1.32554,0.96412 0.26883,0.25027 0.38004,0.34295 0.71371,0.33354 0.33367,-0.009 0.88983,-0.12064 1.4924,0.0927 0.60257,0.21334 1.25142,0.75096 1.65625,1.24336 0.40482,0.4924 0.57757,0.97227 0.55895,1.38929 -0.0186,0.41703 -0.22255,0.7878 -0.39853,0.9824 -0.17599,0.1946 -0.32429,0.21313 -0.37068,0.27819 -0.0464,0.0651 0.009,0.17628 0.0462,0.38946 0.037,0.21318 0.0555,0.52835 -0.1113,0.797 -0.16683,0.26866 -0.51907,0.49113 -0.87171,0.61167 -0.35264,0.12054 -0.7039,0.13902 -0.88943,0.23184 -0.18552,0.0928 -0.20405,0.25967 -0.23187,0.4265 -0.0278,0.16683 -0.0649,0.33368 -0.36397,0.50118 -0.29907,0.16749 -0.85014,0.33281 -1.42478,0.34214 -0.57464,0.009 -1.16788,-0.13897 -1.51087,-0.21317 -0.34298,-0.0742 -0.4357,-0.0742 -0.49146,0.0372 -0.0558,0.11136 -0.0743,0.33383 -0.43024,0.62297 -0.35595,0.28915 -1.03435,0.63751 -1.67386,0.76734 -0.6395,0.12982 -1.23274,0.0371 -1.60353,-0.074 -0.37079,-0.11114 -0.5191,-0.24091 -0.67671,-0.29667 -0.15761,-0.0557 -0.32446,-0.0372 -0.63031,-0.10204 -0.30586,-0.0648 -0.75079,-0.21314 -1.14014,-0.45407 -0.38935,-0.24093 -0.72305,-0.57463 -0.9456,-0.71383 -0.22255,-0.1392 -0.33378,-0.0836 -0.56552,0.0369 -0.23175,0.1205 -0.58399,0.30589 -1.37184,0.44495 -0.78785,0.13906 -2.0114,0.23176 -2.96613,0.11133 -0.95473,-0.12042 -1.64067,-0.45411 -2.08563,-0.72288 -0.44497,-0.26876 -0.6489,-0.47269 -0.80646,-0.58402 -0.15757,-0.11134 -0.2688,-0.12988 -0.46359,-0.0372 -0.19479,0.0927 -0.47287,0.29659 -1.05563,0.45403 -0.58276,0.15744 -1.4749,0.26896 -2.02178,0.23202 -0.54688,-0.0369 -0.7508,-0.22233 -0.89918,-0.29664 -0.14838,-0.0743 -0.24108,-0.0372 -0.55298,0.0912 -0.3119,0.12842 -0.85607,0.35359 -1.62539,0.48339 -0.76932,0.1298 -1.77041,0.16687 -2.66954,0.0742 -0.89912,-0.0926 -1.69628,-0.31511 -2.29448,-0.70743 -0.5982,-0.39232 -1.01481,-0.97936 -1.3114,-1.27612 -0.29659,-0.29676 -0.48198,-0.31529 -0.94548,-0.29677 -0.46351,0.0185 -1.20505,0.0741 -1.87246,-0.21308 -0.6674,-0.28722 -1.26065,-0.91753 -1.54814,-1.43664 -0.28749,-0.51911 -0.26895,-0.92696 -0.25968,-1.13102 0.009,-0.20405 0.009,-0.20405 -0.19447,-0.26889 z"
             id="path11428"
             inkscape:path-effect="#path-effect11446"
             inkscape:original-d="m 130.88276,139.42444 c -0.40759,-0.12951 -0.81545,-0.25928 -1.22358,-0.38932 -0.14805,-0.51884 -0.29636,-1.03793 -0.44493,-1.55729 0.0559,-0.48176 0.1115,-0.96376 0.16685,-1.44604 0.31543,-0.16659 0.63059,-0.33344 0.94549,-0.50056 0.0188,-0.12951 0.0373,-0.25928 0.0556,-0.38932 0.13004,-0.44468 0.25981,-0.88961 0.38932,-1.33481 0.27835,-0.27783 0.55643,-0.55591 0.83426,-0.83426 0.33397,-0.0183 0.66767,2.6e-4 1.00111,0 0.0744,-0.18513 0.14857,-0.37052 0.22247,-0.55617 0.40813,-0.63008 0.81598,-1.2604 1.22358,-1.89099 0.59352,-0.24075 1.18676,-0.48175 1.77975,-0.72302 0.57498,2.6e-4 1.14969,2.6e-4 1.72413,0 0.50083,0.25981 1.00138,0.51935 1.50167,0.77864 0.0744,0.16712 0.14858,0.33396 0.22247,0.50055 0.16712,-0.14805 0.33396,-0.29636 0.50055,-0.44494 0.27836,-0.38906 0.55644,-0.77837 0.83426,-1.16796 0.68622,-0.5003 1.37216,-1.00084 2.05784,-1.50166 0.74184,-0.11097 1.48339,-0.18513 2.22469,-0.27809 0.46375,0.2969 0.92722,0.59351 1.39043,0.88987 0.38959,0.4823 0.77891,0.9643 1.16796,1.44605 0.0744,0.2969 0.14858,0.59352 0.22247,0.88988 0.093,2.6e-4 0.18566,-0.0368 0.27809,-0.0556 0.46375,0.0559 0.92722,0.1115 1.39043,0.16686 0.37105,0.35251 0.74183,0.74182 1.11234,1.11234 0.1115,2.6e-4 0.22274,2.6e-4 0.33371,0 0.46375,-0.48176 0.92722,-0.96377 1.39043,-1.44605 1.11263,-0.31491 2.22495,-0.63006 3.33703,-0.94549 0.87162,0.16712 1.74294,0.29689 2.61401,0.44493 0.53791,0.98286 1.07553,1.96541 1.6129,2.94772 0.0188,0.093 0.0373,0.18566 0.0556,0.27809 0.25982,-0.0368 0.51936,-0.0739 0.77864,-0.11124 0.2969,0.33398 0.59352,0.66767 0.88988,1.00111 0.0373,0.31544 0.0744,0.6306 0.11123,0.94549 0.093,0.093 0.18566,0.18566 0.27809,0.27809 0.83454,0.2042 1.66878,0.40812 2.50277,0.61179 0.42668,0.40813 0.85307,0.81599 1.2792,1.22358 0.1115,0.093 0.22273,0.18566 0.3337,0.27809 0.55645,-0.11098 1.11261,-0.22221 1.66852,-0.33371 0.64915,0.53791 1.298,1.07553 1.94661,1.6129 0.16711,0.44522 0.33396,0.92722 0.50055,1.39043 -0.20367,0.37106 -0.4076,0.74183 -0.61179,1.11235 -0.14805,0.0188 -0.29636,0.0373 -0.44494,0.0556 0.0559,0.1115 0.1115,0.22273 0.16685,0.3337 0.0188,0.31543 0.0374,0.63059 0.0556,0.94549 -0.35198,0.22274 -0.70422,0.44521 -1.05673,0.66741 -0.35198,0.0373 -0.70422,0.0373 -1.05672,0.0556 -0.0183,0.16712 -0.0368,0.33397 -0.0556,0.50055 -0.0368,0.16712 -0.0739,0.33397 -0.11124,0.50056 -0.55591,0.18566 -1.11208,0.33397 -1.66851,0.50055 -0.593,-0.14805 -1.18624,-0.29636 -1.77976,-0.44493 -0.0924,2.6e-4 -0.18512,2.6e-4 -0.27808,0 -0.0183,0.22273 -0.0368,0.4452 -0.0556,0.6674 -0.68569,0.37106 -1.37163,0.70475 -2.05784,1.05673 -0.593,-0.0924 -1.18623,-0.18513 -1.77975,-0.27809 -0.14805,-0.12951 -0.29636,-0.25928 -0.44494,-0.38932 -0.16659,0.0188 -0.33343,0.0374 -0.50055,0.0556 -0.44468,-0.14805 -0.88961,-0.29636 -1.33482,-0.44494 -0.33344,-0.33344 -0.66714,-0.66714 -1.0011,-1.00111 -0.11098,0.0559 -0.22221,0.1115 -0.33371,0.16685 -0.35198,0.18566 -0.70422,0.37105 -1.05673,0.55617 -1.22334,0.093 -2.44689,0.18566 -3.67073,0.27809 -0.6857,-0.33344 -1.37163,-0.66714 -2.05784,-1.00111 -0.20367,-0.20367 -0.4076,-0.40759 -0.61179,-0.61179 -0.11097,-0.0183 -0.22221,-0.0368 -0.3337,-0.0556 -0.27783,0.2042 -0.55591,0.40813 -0.83427,0.61179 -0.88962,0.093 -1.77948,0.22274 -2.66962,0.33371 -0.20367,-0.18513 -0.4076,-0.37052 -0.61179,-0.55618 -0.0924,0.0374 -0.18513,0.0744 -0.27809,0.11124 -0.53738,0.2042 -1.075,0.4452 -1.6129,0.66741 -1.00086,0.0373 -2.00195,0.0744 -3.00333,0.11123 -0.79693,-0.22221 -1.59409,-0.44467 -2.39154,-0.66741 -0.4076,-0.55591 -0.81545,-1.14916 -1.22358,-1.72413 -0.18513,-0.0183 -0.37052,-0.0368 -0.55617,-0.0556 -0.74132,0.0559 -1.48286,0.1115 -2.22469,0.16685 -0.593,-0.63007 -1.18624,-1.26039 -1.77975,-1.89098 0.0188,-0.40761 0.0373,-0.81546 0.0556,-1.22358 z" /><path
             id="path11430"
             style="display:inline;opacity:1;fill:#dbe3e2;fill-opacity:1;stroke-width:3;stroke-linecap:round"
             d="m 147.32523,129.97842 c -0.46806,0.69737 -1.03119,1.51909 -1.22628,2.02262 -0.24378,0.62917 0.09,0.7579 0.34674,0.79633 0.25672,0.0384 0.43621,-0.0131 0.61599,0.0641 0.17978,0.0772 0.3599,0.28263 0.55242,0.33383 0.19252,0.0512 0.3979,-0.0512 0.47491,-0.28215 0.077,-0.23093 0.0255,-0.59073 0.0512,-0.79634 0.0257,-0.2056 0.12861,-0.2568 0.19275,-0.80873 0.0131,-0.11272 0.0247,-0.24857 0.0377,-0.39016 -0.0839,-0.0101 -0.1618,-0.0173 -0.22789,-0.0217 -0.27813,-0.0186 -0.37406,7.3e-4 -0.45579,-0.13849 -0.0784,-0.13357 -0.15148,-0.41307 -0.36173,-0.77928 z m 6.94169,0.1819 c -0.64065,0.14769 -1.26326,0.36518 -1.75803,0.61547 -0.78801,0.39862 -1.2517,0.88037 -1.53892,1.12138 -0.28723,0.24096 -0.39824,0.24107 -0.63924,0.0558 -0.0592,-0.0455 -0.12718,-0.10335 -0.20154,-0.16692 0.0651,0.60685 -0.0993,1.08839 -0.0243,1.40922 0.0901,0.38518 0.52655,0.53954 0.74466,0.47542 0.21811,-0.0641 0.21786,-0.34689 0.37207,-0.47542 0.15421,-0.12854 0.46219,-0.103 0.64182,0.14108 0.17963,0.24407 0.2313,0.70631 0.38551,1.0144 0.15421,0.3081 0.41112,0.46228 0.70642,0.68058 0.29529,0.2183 0.62898,0.50108 0.78289,0.71934 0.15391,0.21825 0.12403,0.39721 0.22893,0.68006 0.1049,0.28285 0.33588,0.71936 0.39998,1.04025 0.0641,0.32088 -0.0386,0.52624 0,0.82165 0.0386,0.29541 0.21819,0.68061 0.30799,1.01441 0.0898,0.3338 0.0899,0.61628 0,0.89865 -0.0899,0.28237 -0.26965,0.5646 -0.47491,0.69298 -0.20526,0.12839 -0.4334,0.10319 -0.64027,-0.0124 -0.20687,-0.11558 -0.37409,-0.30663 -0.57309,-0.37827 -0.19901,-0.0716 -0.40435,0.006 -0.76378,0.006 -0.35943,5e-5 -0.87271,-0.0768 -1.19373,-0.19224 -0.32101,-0.11543 -0.44963,-0.26956 -0.37258,-0.34675 0.077,-0.0772 0.35949,-0.0772 0.56482,-0.11576 0.20534,-0.0385 0.33362,-0.11574 0.23099,-0.33382 -0.10262,-0.21812 -0.43637,-0.57757 -0.65474,-1.03973 -0.21837,-0.4622 -0.32543,-1.05201 -0.36173,-1.43764 -0.0363,-0.38564 -0.008,-0.64196 -0.22738,-0.86042 -0.2195,-0.21845 -0.68157,-0.44972 -1.02836,-0.48834 -0.34678,-0.0386 -0.57779,0.11528 -0.82165,0.20516 -0.24387,0.0899 -0.5006,0.11544 -0.74466,0.23099 -0.24406,0.11555 -0.47539,0.32143 -0.5395,0.51418 -0.0641,0.19276 0.0498,0.39166 -0.007,0.6258 -0.057,0.23415 -0.26235,0.54217 -0.48059,0.79892 -0.21824,0.25675 -0.4624,0.47345 -0.64854,0.42943 -0.18613,-0.044 -0.34033,-0.32637 -0.55862,-0.40359 -0.2183,-0.0772 -0.5006,0.0513 -0.71882,0.0129 -0.21822,-0.0383 -0.37214,-0.24384 -0.6289,-0.48783 -0.25676,-0.24398 -0.61635,-0.52636 -0.92449,-0.74465 -0.30814,-0.2183 -0.56497,-0.3726 -0.6165,-0.55243 -0.0515,-0.17982 0.10253,-0.3853 0.32091,-0.52658 0.21838,-0.14128 0.50079,-0.21829 0.84749,-0.0641 0.34671,0.15422 0.75756,0.53967 1.06557,0.62942 0.30801,0.0898 0.51357,-0.1158 0.7705,-0.20567 0.25692,-0.0899 0.56296,-0.0641 0.74362,-0.20516 0.18065,-0.14105 0.23183,-0.44953 0.38602,-0.62942 0.15419,-0.17985 0.40627,-0.23015 0.16485,-0.33331 -0.24142,-0.10316 -0.98603,-0.25707 -1.49965,-0.52658 -0.51362,-0.26951 -0.80839,-0.67167 -0.94361,-1.04852 -0.13523,-0.37685 -0.13514,-0.7619 -0.23771,-1.04438 -0.10258,-0.28248 -0.30809,-0.4623 -0.51367,-0.44958 -0.20557,0.0127 -0.41099,0.21843 -0.74465,0.20567 -0.33367,-0.0128 -0.79593,-0.24425 -1.3994,-0.70642 -0.45497,-0.34844 -0.98945,-0.82748 -1.38493,-1.19114 -0.0833,0.10362 -0.16047,0.20099 -0.22893,0.28371 -0.18824,0.22746 -0.33636,0.36736 -0.45062,0.39997 0.0445,0.47161 -0.038,0.82044 -0.19843,1.08469 -0.16407,0.27017 -0.43343,0.51281 -1.01751,0.53278 -0.58408,0.02 -1.50863,-0.15965 -2.21485,-0.63458 -0.55474,-0.37306 -0.97465,-0.92873 -1.21027,-1.59164 -0.20951,0.1129 -0.4113,0.24923 -0.59996,0.41341 -0.50064,0.43572 -0.90826,1.06592 -1.14928,1.47382 -0.24102,0.40791 -0.31558,0.59314 -0.51935,0.68574 -0.20377,0.0926 -0.53734,0.093 -0.84336,0.23203 -0.30603,0.13905 -0.58411,0.41716 -0.78807,0.77876 -0.20395,0.3616 -0.33357,0.80609 -0.40772,1.09348 -0.0742,0.28738 -0.0926,0.41716 -0.25942,0.56534 -0.16678,0.14817 -0.48221,0.31517 -0.66766,0.63975 -0.13849,0.24238 -0.20454,0.57262 -0.2098,0.93276 0.19064,0.1638 0.39305,0.32035 0.58187,0.42581 0.43653,0.24381 0.79581,0.21799 1.29656,0.47491 0.50075,0.25692 1.14277,0.79619 1.59215,1.09141 0.44938,0.29521 0.70644,0.34645 1.06919,0.30696 0.36275,-0.0395 0.81844,-0.16623 1.28054,-0.62839 0.46211,-0.46216 0.92435,-1.25794 1.2454,-1.70739 0.22073,-0.30899 0.37464,-0.45429 0.48266,-0.45217 0.0491,9.6e-4 0.0883,0.0328 0.12041,0.093 0.10268,0.19275 0.12839,0.68047 0.16691,1.41232 0.0385,0.73185 0.0898,1.70758 0.51367,2.38796 0.42385,0.68043 1.21993,1.06574 2.10581,1.24541 0.88588,0.17967 1.8616,0.15396 2.54196,-0.0258 0.68037,-0.17976 1.06575,-0.51368 1.25833,-0.74466 0.19258,-0.23097 0.19267,-0.41044 0.0579,-0.5979 -0.1348,-0.18746 -0.42995,-0.42914 -0.68678,-0.71158 -0.25682,-0.28243 -0.488,-0.61594 -0.42374,-0.7059 0.0643,-0.0899 0.42391,0.0639 0.78341,0.19224 0.3595,0.12837 0.71909,0.23126 1.33532,0.17983 0.61623,-0.0514 1.48932,-0.25709 1.99006,-0.26975 0.50075,-0.0127 0.62884,0.1669 0.28215,0.38499 -0.34669,0.2181 -1.16815,0.47518 -1.64331,0.6935 -0.47515,0.21833 -0.60379,0.39782 -0.62942,0.65474 -0.0256,0.25691 0.0515,0.59119 0.20568,0.83509 0.15418,0.24389 0.38553,0.39788 0.96324,0.37207 0.57772,-0.0258 1.50189,-0.23114 2.09238,-0.57774 0.59049,-0.3466 0.84716,-0.83483 1.15549,-0.95033 0.30832,-0.11549 0.66789,0.14145 1.11724,0.5395 0.44936,0.39805 0.98869,0.93737 1.59215,1.2454 0.60348,0.30804 1.27096,0.38507 1.96422,0.30799 0.69327,-0.0771 1.41227,-0.3085 1.88723,-0.62942 0.47495,-0.32091 0.70599,-0.73169 0.89865,-0.7059 0.19267,0.0258 0.34715,0.48828 1.048,1.06299 0.70085,0.5747 1.96968,1.27369 2.86132,1.44952 0.89165,0.17583 1.39338,-0.15047 1.82987,-0.57412 0.43648,-0.42365 0.79624,-0.93678 1.30999,-0.98806 0.51375,-0.0513 1.1816,0.3595 1.72083,0.56483 0.53923,0.20533 0.94994,0.20533 1.87637,0.0894 0.53897,-0.0674 1.2488,-0.17228 1.85518,-0.047 0.0272,-0.0329 0.0519,-0.0662 0.0734,-0.10077 0.16684,-0.26865 0.14811,-0.58419 0.11111,-0.79737 -0.037,-0.21318 -0.0924,-0.32402 -0.046,-0.38912 0.0464,-0.0651 0.19453,-0.0839 0.37052,-0.27854 0.17598,-0.1946 0.37979,-0.56533 0.39842,-0.98236 0.016,-0.35892 -0.11022,-0.76452 -0.40359,-1.18443 -0.39037,0.57619 -0.82451,1.06717 -1.31465,1.33584 -0.68712,0.37664 -1.50869,0.35134 -2.15077,0.50539 -0.64209,0.15406 -1.11633,0.4964 -1.23869,0.42788 -0.12235,-0.0685 0.083,-0.53042 0.0832,-0.81287 1.9e-4,-0.28245 -0.20548,-0.38546 -0.35967,-0.6165 -0.15418,-0.23103 -0.2635,-0.61392 -0.43976,-0.79478 -0.17626,-0.18086 -0.43534,-0.20697 -0.62684,-0.0527 -0.19149,0.15426 -0.32017,0.48784 -0.44855,0.73174 -0.12838,0.2439 -0.25668,0.39805 -0.37207,0.43666 -0.11539,0.0386 -0.21824,-0.0383 -0.26975,-0.20515 -0.0515,-0.16689 -0.0512,-0.44932 -0.20516,-0.59066 -0.15392,-0.14134 -0.4623,-0.19263 -0.70641,-0.0899 -0.24412,0.10271 -0.42392,0.35917 -0.42375,0.53899 1.8e-4,0.17981 0.1802,0.28296 0.30851,0.42426 0.1283,0.1413 0.21439,0.34227 0.27388,0.69091 0.0595,0.34865 0.11082,0.88824 -0.005,1.18339 -0.11546,0.29515 -0.39805,0.34639 -0.66766,0.231 -0.26961,-0.1154 -0.52633,-0.39772 -0.89865,-0.7059 -0.37232,-0.30818 -0.86019,-0.64192 -1.3224,-0.91158 -0.46221,-0.26965 -0.89846,-0.47512 -1.06557,-0.68057 -0.1671,-0.20546 -0.054,-0.43165 0.0692,-0.62684 0.12327,-0.19519 0.28934,-0.4172 0.4501,-0.61443 0.16077,-0.19723 0.35335,-0.41698 0.57826,-0.47387 0.22491,-0.0569 0.50746,0.0201 0.64854,-0.0568 0.14108,-0.0769 0.14083,-0.30783 0.17932,-0.53898 0.0385,-0.23116 0.12352,-0.48542 0.26096,-0.65371 0.13745,-0.1683 0.34259,-0.29712 0.41962,-0.51522 0.077,-0.21809 0.026,-0.52582 -0.10232,-0.82113 -0.12831,-0.29531 -0.33392,-0.57814 -0.59067,-0.74518 -0.25674,-0.16704 -0.56479,-0.21801 -0.83457,-0.12816 -0.26978,0.0899 -0.50079,0.32091 -0.83457,0.56483 -0.33379,0.24392 -0.77029,0.50031 -1.21957,0.60306 -0.44927,0.10275 -0.91182,0.0519 -1.14308,-0.0636 -0.23126,-0.11542 -0.23134,-0.29542 -0.20567,-0.60358 0.0257,-0.30816 0.08,-0.76992 0.0145,-1.11673 -0.0656,-0.3468 -0.24497,-0.62952 -0.65578,-0.83509 -0.41081,-0.20556 -1.053,-0.33378 -1.52807,-0.41083 -0.47507,-0.0771 -0.78307,-0.10275 -0.98857,-0.23099 -0.2055,-0.12824 -0.30818,-0.35907 -0.26975,-0.61598 0.0384,-0.25691 0.21822,-0.53938 0.43667,-0.59067 0.21844,-0.0513 0.48718,0.13645 0.7121,0.10646 0.22492,-0.03 0.43044,-0.26082 0.67437,-0.64596 0.18472,-0.29165 0.39071,-0.67056 0.54157,-0.95498 z m -15.48071,4.85914 c 0.11168,-0.001 0.23306,0.0691 0.32557,0.19223 0.16446,0.21883 0.24646,0.65426 0.42633,0.98806 0.17986,0.33379 0.46213,0.59054 0.6997,0.82734 0.23755,0.23679 0.45581,0.48253 0.51986,0.70073 0.064,0.2182 -0.0132,0.42329 0.14108,0.69298 0.15424,0.26969 0.5393,0.60362 0.57774,0.83457 0.0384,0.23096 -0.26954,0.35961 -0.71882,0.28267 -0.44928,-0.0769 -1.03968,-0.35986 -1.38648,-0.79633 -0.3468,-0.43647 -0.44983,-1.02686 -0.56534,-1.45056 -0.1155,-0.42369 -0.24372,-0.6802 -0.30799,-1.03973 -0.0643,-0.35953 -0.0645,-0.87355 0.0641,-1.09192 0.0562,-0.0955 0.13741,-0.1392 0.22427,-0.14004 z m -7.93026,4.42195 c 0.006,0.008 0.0108,0.0178 0.0139,0.0289 -0.003,-0.0112 -0.008,-0.0205 -0.0139,-0.0289 z m 38.06486,3.46025 c -0.0102,0.01 -0.0214,0.0196 -0.032,0.0295 0.0106,-0.01 0.0219,-0.0194 0.032,-0.0295 z m -0.0935,0.0837 c -0.013,0.0107 -0.0268,0.0211 -0.0403,0.0315 0.0136,-0.0104 0.0273,-0.0208 0.0403,-0.0315 z m -0.10231,0.0775 c -0.0145,0.0101 -0.0291,0.0202 -0.0439,0.03 0.0149,-0.01 0.0294,-0.0198 0.0439,-0.03 z m -0.11214,0.0724 c -0.0159,0.01 -0.0319,0.0188 -0.0481,0.0279 0.0162,-0.009 0.0322,-0.0184 0.0481,-0.0279 z m -0.11782,0.0656 c -0.0156,0.008 -0.0312,0.0161 -0.047,0.0238 0.0158,-0.008 0.0314,-0.0157 0.047,-0.0238 z m -0.12093,0.0574 c -0.0176,0.008 -0.035,0.016 -0.0527,0.0232 0.0178,-0.007 0.0351,-0.0155 0.0527,-0.0232 z m -31.97892,0.40049 c 0.0685,0.0615 0.14041,0.12109 0.21497,0.1788 -0.0747,-0.0578 -0.14642,-0.11722 -0.21497,-0.1788 z m 26.58235,1.51102 c -0.0347,0.034 -0.0738,0.0693 -0.11834,0.10542 0.0446,-0.0362 0.0836,-0.0714 0.11834,-0.10542 z" /><path
             id="path11432"
             style="opacity:1;fill:#b1bfc3;fill-opacity:1;stroke-width:3;stroke-linecap:round"
             d="m 136.84938,136.63331 c -0.10802,-0.002 -0.26193,0.14318 -0.48266,0.45217 -0.32105,0.44945 -0.78329,1.24523 -1.2454,1.70739 -0.46211,0.46216 -0.91779,0.58889 -1.28054,0.62839 -0.36275,0.0395 -0.6198,-0.0117 -1.06919,-0.30696 -0.44938,-0.29522 -1.09139,-0.83449 -1.59215,-1.09141 -0.50075,-0.25692 -0.86003,-0.2311 -1.29656,-0.47491 -0.18882,-0.10546 -0.39123,-0.26201 -0.58187,-0.42581 -0.002,0.12214 0.003,0.24787 0.015,0.37466 0.0464,0.50059 0.19515,1.01925 0.47336,1.34358 0.2782,0.32434 0.6861,0.45455 0.88987,0.51935 v -5.2e-4 c 0.20376,0.0648 0.2036,0.0647 0.1943,0.26872 -0.009,0.20406 -0.0281,0.61209 0.25941,1.1312 0.2875,0.51911 0.88083,1.14938 1.54823,1.4366 0.66741,0.28718 1.40925,0.23193 1.87275,0.21343 0.46351,-0.0185 0.64858,-1.4e-4 0.94517,0.29662 0.29659,0.29676 0.71334,0.88357 1.31154,1.27589 0.5982,0.39232 1.39531,0.61485 2.29444,0.70745 0.89912,0.0927 1.90028,0.0559 2.6696,-0.0739 0.76932,-0.1298 1.31333,-0.35527 1.62523,-0.48369 0.3119,-0.1284 0.40456,-0.16525 0.55293,-0.091 0.14838,0.0743 0.35229,0.25972 0.89917,0.29662 0.54688,0.0369 1.43935,-0.0746 2.0221,-0.23202 0.58276,-0.15744 0.86096,-0.36154 1.05575,-0.45424 0.19479,-0.0927 0.30597,-0.0741 0.46354,0.0372 0.15757,0.11134 0.36119,0.31518 0.80615,0.58394 0.44497,0.26877 1.13093,0.60254 2.08566,0.72296 0.95473,0.12043 2.17838,0.028 2.96623,-0.11111 0.78785,-0.13906 1.14027,-0.32443 1.37201,-0.44493 0.23174,-0.1205 0.34279,-0.17641 0.56534,-0.0372 0.22255,0.1392 0.55633,0.47324 0.94568,0.71417 0.38935,0.24093 0.83413,0.38892 1.13998,0.45372 0.30585,0.0648 0.47284,0.0466 0.63045,0.10232 0.15761,0.0558 0.30565,0.18548 0.67645,0.29662 0.37079,0.1111 0.96401,0.20372 1.60352,0.0739 0.6395,-0.12983 1.31836,-0.47825 1.67431,-0.7674 0.35595,-0.28914 0.37419,-0.51134 0.42995,-0.6227 0.0558,-0.1114 0.14846,-0.11141 0.49144,-0.0372 0.34299,0.0742 0.93638,0.22191 1.51102,0.21291 0.57465,-0.009 1.12565,-0.17461 1.42472,-0.3421 0.29907,-0.1675 0.33599,-0.33443 0.3638,-0.50126 0.0278,-0.16683 0.0465,-0.33353 0.23203,-0.42633 0.18553,-0.0928 0.53672,-0.11149 0.88935,-0.23203 0.3073,-0.10504 0.61414,-0.2876 0.7984,-0.51056 -0.60639,-0.12525 -1.31621,-0.0204 -1.85518,0.047 -0.92643,0.11593 -1.33714,0.11593 -1.87637,-0.0894 -0.53923,-0.20533 -1.20707,-0.61613 -1.72083,-0.56483 -0.51375,0.0513 -0.87351,0.56441 -1.30999,0.98806 -0.43649,0.42365 -0.93821,0.74995 -1.82987,0.57412 -0.89165,-0.17583 -2.16047,-0.87482 -2.86132,-1.44952 -0.70085,-0.57471 -0.85533,-1.03719 -1.048,-1.06299 -0.19266,-0.0258 -0.4237,0.38499 -0.89865,0.7059 -0.47496,0.32092 -1.19396,0.55232 -1.88723,0.62942 -0.69326,0.0771 -1.36074,5e-5 -1.96422,-0.30799 -0.60347,-0.30803 -1.14279,-0.84735 -1.59215,-1.2454 -0.44936,-0.39805 -0.80892,-0.65499 -1.11724,-0.5395 -0.30833,0.1155 -0.565,0.60373 -1.15549,0.95033 -0.59049,0.3466 -1.51465,0.55194 -2.09238,0.57774 -0.57772,0.0258 -0.80906,-0.12818 -0.96324,-0.37207 -0.15419,-0.2439 -0.2313,-0.57818 -0.20568,-0.83509 0.0256,-0.25692 0.15426,-0.43641 0.62942,-0.65474 0.47516,-0.21832 1.29662,-0.4754 1.64331,-0.6935 0.34669,-0.21809 0.2186,-0.39769 -0.28215,-0.38499 -0.50075,0.0127 -1.37383,0.21835 -1.99006,0.26975 -0.61623,0.0514 -0.97582,-0.0515 -1.33532,-0.17983 -0.3595,-0.12839 -0.71915,-0.28214 -0.78341,-0.19224 -0.0643,0.09 0.16692,0.42347 0.42374,0.7059 0.25683,0.28244 0.55198,0.52412 0.68678,0.71158 0.1348,0.18746 0.13471,0.36693 -0.0579,0.5979 -0.19258,0.23098 -0.57796,0.5649 -1.25833,0.74466 -0.68036,0.1798 -1.65607,0.20551 -2.54196,0.0258 -0.88589,-0.17967 -1.68196,-0.56498 -2.10581,-1.24541 -0.42386,-0.68043 -0.47515,-1.65611 -0.51367,-2.38796 -0.0385,-0.73185 -0.0642,-1.21957 -0.16691,-1.41232 -0.0321,-0.0602 -0.0713,-0.0921 -0.12041,-0.093 z" /></g></g></g></g></svg>
