<svg xmlns="http://www.w3.org/2000/svg" xml:space="preserve" width="402.722" height="364.532" viewBox="0 0 106.554 96.449"><defs><filter id="a" width="1.168" height="1.339" x="-.084" y="-.17" style="color-interpolation-filters:sRGB"><feGaussianBlur stdDeviation="1.812"/></filter></defs><g style="display:inline"><g style="display:inline" transform="translate(-51.723)"><circle cx="102.005" cy="52.693" r="43.756" style="fill:#f3f4d7;fill-opacity:1;stroke:none;stroke-width:2.6625;stroke-linecap:round;stroke-opacity:1"/><path d="M65.563 76.882a43.756 43.756 0 0 0 36.442 19.567 43.756 43.756 0 0 0 36.442-19.567z" style="fill:#676c53;fill-opacity:1;stroke:none;stroke-width:2.6625;stroke-linecap:round;stroke-opacity:1"/><path d="M65.563 76.882a43.756 43.756 0 0 0 3.965 5.084h64.955a43.756 43.756 0 0 0 3.964-5.084z" style="fill:#a7ac93;fill-opacity:1;stroke:none;stroke-width:2.6625;stroke-linecap:round;stroke-opacity:1"/></g><g aria-label="SKY" style="font-weight:700;font-size:19.7556px;-inkscape-font-specification:&quot;sans-serif, Bold&quot;;display:inline;fill:#676c53;stroke:#676c53;stroke-linecap:round"><path d="M28.295 60.261v3.048q-1.186-.53-2.315-.8t-2.132-.27q-1.33 0-1.968.366-.636.367-.636 1.138 0 .58.424.907.434.318 1.563.55l1.582.318q2.402.483 3.415 1.467 1.013.983 1.013 2.797 0 2.383-1.418 3.55-1.409 1.157-4.312 1.157-1.37 0-2.75-.26-1.379-.26-2.758-.772v-3.135q1.379.733 2.662 1.11 1.293.366 2.489.366 1.215 0 1.861-.405.647-.405.647-1.158 0-.675-.444-1.041-.434-.367-1.746-.656l-1.437-.319q-2.161-.463-3.164-1.476-.994-1.013-.994-2.73 0-2.15 1.39-3.308 1.388-1.158 3.993-1.158 1.186 0 2.44.183 1.254.174 2.595.531zM32.501 59.808h3.714v5.257l5.353-5.257h4.312l-6.935 6.82 7.65 7.582h-4.65l-5.73-5.672v5.672H32.5z"/><path d="M45.803 59.808h4.061l3.28 5.131 3.28-5.131h4.07l-5.488 8.334v6.068h-3.714v-6.068z"/></g></g><g style="display:inline"><path d="M14.1 51.626c-.176-.083-.528-.25-.833-.324-.306-.075-.566-.056-.915-.156-.348-.1-.8-.326-1.209-.512-.407-.185-.778-.333-1.02-.806-.24-.473-.352-1.27-.213-1.984a3.462 3.462 0 0 1 .942-1.75 2.381 2.381 0 0 1 1.302-.67c.435-.073.862-.036 1.21-.38.35-.344.634-1.102.884-1.547.25-.445.473-.594.785-1.197.312-.604.726-1.695 1.153-2.437.426-.742.871-1.15 1.335-1.455.463-.306.945-.51 1.427-.696.482-.185.964-.352 1.23-.52a.718.718 0 0 0 .355-.536 1.188 1.188 0 0 0-.028-.538c-.055-.185-.166-.389-.315-.825-.148-.435-.333-1.103-.373-1.65-.04-.548.076-1.01.345-1.538.27-.529.696-1.14 1.117-1.682.422-.542.858-1.035 1.33-1.378.473-.343.992-.546 1.351-.955.359-.409.568-1.056.846-1.594.278-.537.63-.982 1.039-1.288.408-.306.871-.473 1.418-.64a15.657 15.657 0 0 1 1.696-.426c.52-.093.927-.111 1.326-.028.399.084.788.27 1.057.297.268.028.417-.102.59-.391.172-.289.383-.768.651-1.25.27-.482.603-.982 1.02-1.539.417-.556.918-1.168 1.488-1.702a11.316 11.316 0 0 1 1.836-1.373c.609-.37 1.19-.651 1.793-.78.603-.13 1.233-.112 1.79-.27.555-.157 1.037-.491 1.5-.936.464-.445.909-1.001 1.91-1.826 1.001-.825 2.559-1.919 3.788-2.677 1.23-.759 2.145-1.188 3.155-1.522 1.01-.334 2.123-.575 3.282-.779 1.158-.204 2.363-.37 3.383-.426 1.019-.056 1.854 0 2.596.12.741.121 1.39.306 2.169.63.778.325 1.687.789 2.456 1.27.77.483 1.4.983 1.933 1.442.533.459.95.858 1.45 1.117.501.26 1.076.37 1.52.52.446.148.76.333 1.044.56.282.227.551.515.653.774.102.26.046.5.074.732.028.232.14.455.751 1.01.612.557 1.724 1.447 2.416 2.153.69.707.977 1.26 1.162 2.038.185.778.278 1.798.315 2.493.037.695.018 1.066.158 1.251.139.186.435.186.927.288.491.102 1.177.306 1.807.51.63.204 1.205.407 1.799.704.593.297 1.205.686 1.613.992.407.306.611.528.843.732.232.204.491.39.732.529s.464.231.733.176c.268-.056.583-.26 1-.371.418-.111.937-.13 1.799-.084.862.047 2.067.158 3.115.27 1.047.11 1.937.222 2.604.407.668.186 1.113.445 1.715 1.02.603.575 1.363 1.465 1.91 2.15.547.687.88 1.169 1.103 1.623.222.454.333.88.389 1.297.055.418.055.825 0 1.252a8.24 8.24 0 0 1-.303 1.317c-.136.446-.309.926-.18 1.427.13.5.557 1.038.854 1.483.296.445.463.797.658 1.242.195.445.417.982.564 1.539.147.556.224 1.168.27 1.77.046.603.065 1.214.019 1.706-.047.49-.158.862-.348 1.137-.19.275-.477.466-.751.64-.274.173-.56.345-.628.689-.067.344.086.899.225 1.334.14.436.269.77.396 1.114.127.344.262.73.336 1.065.074.333.093.63.065.917-.028.287-.102.566-.102.779 0 .213.074.361.192.622.117.261.29.666.383 1.148.093.482.111 1.057.066 1.641-.044.585-.159 1.214-.428 1.687-.269.473-.695.806-1.158 1.13-.464.325-.964.64-1.511.993-.547.352-1.14.741-2.15 1.028-1.011.288-2.439.473-3.347.473-.908 0-1.298-.185-1.705-.445a9.559 9.559 0 0 1-1.187-.908c-.352-.315-.63-.612-.964-.658-.334-.047-.723.157-1.196.222s-1.029-.009-1.414-.109-.616-.234-1.21-.048c-.593.185-1.557.686-2.47 1.175-.914.489-1.793.975-2.48 1.133-.685.157-1.185-.01-1.723-.176-.538-.167-1.112-.334-1.798-.686-.686-.352-1.484-.89-2.003-1.353-.519-.464-.76-.853-1.576-.955-.815-.102-2.206.083-3.068.324-.862.241-1.196.538-1.779.64-.582.102-1.419.009-1.952-.19-.533-.197-.783-.524-1.506-.44-.723.083-1.928.565-2.837.713-.908.148-1.52-.037-2.252-.093-.732-.055-1.585.019-2.188.01-.602-.01-.954-.102-1.316-.195a55.224 55.224 0 0 0-1.168-.287c-.435-.102-.936-.214-1.622-.473-.686-.26-1.557-.667-2.336-1.288-.779-.621-1.465-1.456-2.123-1.891a2.613 2.613 0 0 0-1.705-.436c-.418.037-.621.148-1.168.176-.547.028-1.437-.028-2.355-.167a22.549 22.549 0 0 1-2.4-.51c-.538-.148-.668-.222-.863-.11-.194.11-.454.407-1.094.787-.64.38-1.659.843-2.799 1.02-1.14.176-2.4.064-3.324-.138-.923-.202-1.524-.502-2.488-.446-.964.055-2.299.463-3.513.584-1.214.12-2.308-.047-3.495-.288-1.186-.24-2.465-.556-3.633-1.112-1.168-.556-2.225-1.353-2.948-2.243-.723-.89-1.112-1.873-1.307-2.364-.195-.491-.195-.491-.37-.575z" style="display:inline;opacity:1;fill:#fafafa;fill-opacity:1;stroke-width:3;stroke-linecap:round" transform="translate(-9.85 -8.918)"/><path d="M15.887 40.439c-.318.657-.615 1.4-.854 1.86-.312.604-.534.753-.785 1.198-.25.445-.534 1.203-.883 1.547-.35.344-.776.307-1.212.38a2.38 2.38 0 0 0-1.3.67 3.462 3.462 0 0 0-.943 1.75c-.139.714-.028 1.511.214 1.984.24.473.611.62 1.02.806.407.186.86.412 1.208.512.348.1.61.082.915.156.305.074.657.241.833.324.176.084.176.084.371.575.195.492.584 1.474 1.307 2.364.723.89 1.78 1.687 2.948 2.243 1.168.556 2.447.871 3.634 1.112 1.186.241 2.28.408 3.494.287 1.214-.12 2.55-.528 3.513-.584.965-.055 1.565.245 2.488.447s2.184.314 3.324.137c1.14-.176 2.16-.64 2.8-1.02.639-.38.898-.676 1.093-.787.195-.11.325-.037.863.111.537.149 1.483.37 2.4.51.918.139 1.808.195 2.355.167.547-.028.75-.14 1.168-.176.417-.037 1.047 0 1.705.436.658.436 1.344 1.27 2.123 1.89.779.622 1.65 1.03 2.336 1.289.686.26 1.187.37 1.622.473.436.102.807.194 1.168.287.362.093.714.186 1.317.195.602.009 1.455-.065 2.187-.01.732.057 1.344.242 2.253.093.908-.148 2.113-.63 2.836-.713.723-.084.973.243 1.506.441s1.37.291 1.952.19c.583-.103.917-.4 1.779-.64.862-.242 2.253-.427 3.069-.325.815.102 1.056.491 1.575.955.52.463 1.317 1.001 2.003 1.353.686.352 1.26.52 1.798.686.538.167 1.038.334 1.724.176.686-.157 1.565-.644 2.479-1.133.914-.49 1.878-.99 2.471-1.175.593-.185.824-.05 1.21.049.384.1.94.173 1.413.108.473-.064.862-.268 1.196-.222.334.047.612.343.964.659.352.315.779.648 1.187.908.408.26.797.445 1.705.445s2.336-.186 3.347-.473c1.01-.288 1.603-.677 2.15-1.03.547-.351 1.047-.666 1.51-.99.316-.221.613-.448.856-.718.265-.46.477-.863.614-1.282.059-.27.097-.548.117-.818.045-.585.027-1.16-.066-1.642a5.167 5.167 0 0 0-.383-1.147c-.079-.175-.136-.3-.166-.427-.11-.047-.26-.062-.486-.072-.621-.028-1.77.009-3.384-.38-1.613-.39-3.701-1.21-5.92-1.227-2.218-.016-4.591.763-6.705 1.004-2.113.241-3.973-.056-5.694-.593-1.721-.537-3.316-1.316-4.892-1.39-1.576-.075-3.146.56-3.936.707-.791.145-.828-.188-2.311-.059-1.483.13-4.42.724-6.585 1.057-2.166.333-3.575.408-4.854.278-1.28-.13-2.438-.466-3.175-.872-.737-.407-1.07-.889-1.033-1.37.037-.483.445-.965.945-1.391.5-.427 1.094-.798 1.39-1.076.297-.278.297-.463.112-.593-.185-.13-.556-.204-1.26.092-.706.297-1.743.965-2.93 1.502-1.186.538-2.521.946-3.652 1.057-1.13.111-2.058-.074-2.707-.352-.649-.278-1.02-.649-1.112-.871-.093-.223.093-.297.816-.724.723-.426 1.983-1.204 2.502-1.668.52-.463.297-.611-.649-.445-.945.167-2.614.649-3.837.686-1.224.037-2.002-.37-2.855-.89-.853-.519-1.78-1.149-1.687-.63.093.52 1.222 2.214 1.77 3.257.547 1.044.547 1.489.566 1.841.018.352.055.612-.594 1.001-.648.39-1.983.908-3.3.779-1.316-.13-2.614-.909-3.911-1.687-2.151.185-4.301.37-6.118.093-1.817-.278-3.3-1.02-4.542-3.022-1.243-2.003-2.243-5.265-3.207-7.768a43.099 43.099 0 0 0-.293-.735z" style="display:inline;opacity:1;fill:#b1bfc3;fill-opacity:1;stroke-width:3;stroke-linecap:round" transform="translate(-9.85 -8.918)"/><path d="M51.28 10.064c-.152.046-.307.089-.456.138-1.01.334-1.926.763-3.155 1.522-1.23.758-2.787 1.851-3.788 2.677-1 .824-1.446 1.38-1.91 1.826-.463.445-.945.779-1.5.936-.557.158-1.187.14-1.79.269-.602.13-1.184.411-1.793.78-.608.37-1.265.84-1.836 1.374-.57.534-1.07 1.146-1.488 1.702a13.71 13.71 0 0 0-1.02 1.539c-.268.482-.479.961-.652 1.25-.09.151-.174.258-.272.322.146.371.21.808.304 1.185.128.509.31.908.291 1.09-.018.181-.236.145-.345.363-.109.218-.109.726-.109 1.216s0 1.036.11 1.417c.108.381.344.617.535.554.19-.064.372-.39.59-.663.218-.273.472-.49.853-.545.382-.054.89.054 1.144.327.255.272.254.708.345 1.162.091.454.285.958-.012 1.432-.296.474-1.076.994-1.776 1.533-.7.54-1.353 1.12-2.061 1.23-.708.109-1.47-.255-2.433-.763-.962-.509-2.125-1.162-2.742-1.707-.618-.545-.69-.98-.345-1.29.345-.308 1.1-.488 1.684-.507.586-.019.985.126 1.348.108.363-.018.69-.2.835-.508.145-.308.106-.78-.273-1.035-.38-.254-1.106-.363-1.615-.636-.508-.272-.799-.707-.672-1.506.122-.77.632-1.874 1.156-2.555-.4.091-.824.207-1.208.324-.547.167-1.01.334-1.419.64-.408.305-.76.75-1.038 1.288s-.487 1.185-.846 1.593c-.358.41-.878.613-1.35.956-.473.343-.909.835-1.33 1.377-.422.542-.85 1.154-1.118 1.682-.269.529-.384.991-.345 1.539.04.547.225 1.214.373 1.65.149.436.26.64.315.825.056.186.056.371.028.538a.717.717 0 0 1-.354.536c-.267.168-.749.335-1.23.52-.483.185-.965.39-1.429.696-.463.306-.908.713-1.334 1.455-.427.742-.84 1.833-1.153 2.436a4.364 4.364 0 0 1-.213.37c.079-.118.16-.25.252-.426.238-.461.536-1.204.853-1.861.098.24.196.48.294.735.964 2.503 1.964 5.765 3.207 7.768 1.242 2.002 2.725 2.744 4.542 3.022 1.817.278 3.967.092 6.118-.093 1.297.778 2.595 1.557 3.911 1.687 1.317.13 2.652-.39 3.3-.779.65-.39.612-.649.594-1-.019-.353-.02-.798-.567-1.842-.547-1.043-1.676-2.738-1.77-3.257-.092-.519.835.111 1.688.63.853.52 1.631.927 2.855.89 1.223-.037 2.892-.519 3.837-.686.946-.166 1.169-.018.65.445-.52.464-1.78 1.242-2.503 1.668-.723.427-.91.501-.816.724.092.222.463.593 1.112.871.65.278 1.576.463 2.707.352 1.13-.111 2.466-.52 3.652-1.057 1.186-.537 2.224-1.205 2.93-1.502.704-.296 1.075-.222 1.26-.092.185.13.185.315-.112.593-.296.278-.89.65-1.39 1.076-.5.426-.908.908-.945 1.39-.037.482.296.964 1.033 1.37.737.407 1.896.743 3.175.873 1.28.13 2.688.055 4.854-.278 2.165-.333 5.102-.927 6.585-1.057 1.483-.13 1.52.204 2.31.059.791-.146 2.362-.782 3.937-.707 1.576.074 3.17.853 4.892 1.39 1.721.537 3.58.834 5.694.593s4.487-1.02 6.705-1.004c2.219.017 4.307.837 5.92 1.227 1.613.389 2.763.352 3.384.38.192.009.328.022.432.055a.798.798 0 0 1-.01-.123c0-.213.073-.49.101-.778.028-.287.01-.584-.065-.918a7.48 7.48 0 0 0-.263-.853c-.21.104-.45.16-.597.229-.273.127-.237.308-.419.635-.181.326-.58.799-1.034 1.035-.454.236-.962.236-1.47.055-.51-.182-1.035-.558-1.553-.733-.518-.176-1.062-.175-1.516-.32-.454-.146-.817-.436-1.38-.618s-1.326-.255-1.834-.345c-.509-.091-.763-.2-.781-.345-.018-.145.2-.327.218-.49.018-.164-.164-.309-.29-.563-.128-.254-.208-.652-.005-.799.204-.146.676-.11 1.02-.254.346-.146.58-.498 1.08-.558.5-.06 1.3.122 1.771.212.472.091.618.091.636-.018.018-.108-.09-.326-.327-.526-.236-.2-.6-.381-1.017-.563-.417-.182-.89-.363-1.361-.436-.473-.072-.945-.037-1.29-.163-.345-.127-.563-.418-.926-.69-.363-.273-.886-.534-1.35-.403-.466.13-.901.639-1.3 1.038-.4.4-.763.69-1.998.872-1.235.181-3.341.254-5.12-.29-1.78-.545-3.215-1.693-4.259-2.445-1.044-.751-1.66-1.078-2.115-1.096-.454-.018-.726.254-.953.844-.227.59-.378 1.497-1.047 2.351-.67.854-1.867 1.725-2.54 2.07-.67.345-.816.164-1.597-.018-.78-.182-2.197-.363-3.014-.254-.818.109-1.035.508-1.87.872-.836.363-2.288.69-3.015.78-.726.091-.726-.054-.508-.363.218-.309.653-.78.998-1.325.345-.545.6-1.162.636-1.616.036-.454-.145-.745-.472-.926-.327-.182-.799-.254-1.053-.454-.255-.2-.29-.527-.236-.963.054-.436.2-.98.49-1.616.29-.635.742-1.388 1.279-1.738.537-.35 1.19-.35 1.68-.731.49-.382.831-1.175.879-1.631.048-.457-.17-.639-.17-1.038 0-.4.218-1.017.272-1.453.055-.435-.068-.72-.26-.85-.194-.13-.488-.167-.777.051-.288.218-.58.69-.851.926-.273.236-.526.236-.654.11-.127-.128-.127-.418-.472-.582-.345-.163-1.035-.272-1.797-.309-.763-.036-1.598 0-2.088-.163s-.636-.527-.328-1.035c.309-.509 1.09-1.178 1.734-1.733.645-.555 1.19-1.027 1.408-1.553.218-.527.102-1.143-.512-1.543-.614-.4-1.74-.655-2.847-1.018-1.108-.363-2.197-.835-2.923-1.507-.727-.671-1.09-1.543-1.145-2.233-.054-.69.2-1.199.237-1.598.036-.4-.146-.69-.654-1.888-.509-1.199-1.344-3.305-1.653-4.903-.309-1.598-.09-2.687.726-4.05.614-1.022 1.565-2.197 2.47-3.48zm16.528 3.342c-.263.238-.562.347-.785.466-.508.273-.617.6-.563.872.055.273.273.49.309.636.036.145-.095.21-.23.523-.134.312-.25.892-.228 1.237.022.346.167.528.422.673.254.145.617.254.962.2.345-.055.655-.262.99-.322.336-.06.663.05.899.05s.38-.11.635-.074c.254.037.617.218.89.309.272.09.454.091.762-.78.021-.06.048-.145.07-.212-.425-.412-.533-.62-.557-.822-.028-.232.027-.473-.074-.732-.102-.26-.37-.547-.654-.774a3.215 3.215 0 0 0-1.042-.56c-.445-.15-1.02-.26-1.52-.52a3.286 3.286 0 0 1-.287-.17zm5.913 5.146c-.114.16-.222.313-.307.46-.4.69-.322 1.27-.251 1.742.07.473.142.909-.003 1.217-.145.309-.509.49-.835.653-.327.164-.632.316-.843.712-.21.396-.356 1.05-.392 1.577-.036.526.036.926.236 1.198.2.272.54.424.824.384.284-.039.538-.257.81-.293.273-.036.563.108.835.108.273 0 .543-.154.753-.149.21.005.392.15.646.277.254.127.592.24.768.129.176-.111.216-.474.232-.892.006-.155.01-.328.047-.51a.333.333 0 0 1-.056-.058c-.139-.185-.12-.556-.157-1.251-.037-.695-.13-1.715-.315-2.494-.186-.778-.471-1.33-1.163-2.037-.238-.243-.53-.508-.83-.773zm-33.135.713c.799 0 1.598.328 2.415 1.217.817.89 1.636 2.315 2.135 3.491.498 1.176.643 2.047.425 2.537-.218.49-.8.6-1.29.872s-.89.708-1.47 1.07c-.581.364-1.343.655-2.251.546-.908-.109-1.961-.618-2.778-1.67-.818-1.054-1.399-2.651-1.69-3.777-.29-1.126-.29-1.78-.054-2.306.236-.527.708-.927 1.108-1.126.4-.2.726-.2 1.289-.363.563-.164 1.362-.49 2.16-.49zm43.042 9.415c-.079.177-.17.34-.245.5-.236.508-.273 1.017-.182 1.38.091.363.327.599.372.807.046.21-.078.456-.216.587-.137.13-.319.203-.482.584-.164.382-.302 1.037-.777 1.617-.476.58-1.275 1.016-1.892 1.27-.618.255-1.053.327-1.308.164-.254-.163-.327-.563-.526-.853-.2-.29-.527-.472-.98-.545-.455-.073-1.036-.036-1.744-.163s-1.532-.414-2.028-.525c-.496-.111-.641-.038-.714-.51-.073-.472-.073-1.49.036-2.234.109-.744.327-1.216.327-1.543 0-.327-.2-.493-.771-.52-.572-.025-1.48.12-2.097.483-.618.364-.96.972-1.352 1.358-.392.386-.864.604-1.209.985-.345.381-.563.926-1.125 1.27-.563.346-1.47.491-2.324.51a11.06 11.06 0 0 1-2.234-.2c-.58-.11-.944-.218-1.126-.11-.182.11-.181.4.073.781.254.382.762.781 1.144.963.38.181.635.145.89.29.254.146.508.473.89.709.38.236.889.38 1.252.889.363.508.58 1.38.962 1.834.382.454.929.49 1.49.799.562.309 1.143.89 1.634 1.58.49.69.89 1.489 1.289 1.979.4.49.799.672 1.162.69.363.018.69-.128.853-.364.164-.235.163-.598.617-1.034.454-.436 1.362-1.017 1.889-1.617.526-.599.671-1.216.998-1.452.327-.236.836-.09 1.453-.018a6.582 6.582 0 0 0 2.052-.073c.708-.145 1.398-.436 1.87-.417.472.018.726.345.98.78.255.436.51.981.781 1.235.273.254.563.218.854-.09.29-.31.58-.89 1.07-1.29.491-.4 1.182-.617 1.744-.708.563-.09 1-.055 1.435-.127.436-.073.871-.254.944-.726.073-.472-.218-1.235-.726-1.707-.509-.472-1.235-.654-1.816-.854-.58-.2-1.017-.417-1.362-.726-.345-.309-.616-.734-.644-1.193-.028-.46.164-1.037.486-1.384.321-.346.793-.528.83-.8.036-.273-.363-.636-.635-1.398a2.972 2.972 0 0 1-.17-.768c-.265.104-.486.222-.68.262-.27.056-.492-.037-.733-.176a4.442 4.442 0 0 1-.279-.18zm13.988 4.897a4.042 4.042 0 0 1-.384 1.466c-.322.71-.649 1.182-1.048 1.418-.4.236-.871.235-1.27.344-.4.11-.71.316-.755.685-.045.369.21.877.554 1.113.345.236.781.2 1.108.363.327.164.545.527.944.49.256-.022.586-.207.998-.268-.062-.444.087-.87.21-1.269.135-.446.246-.89.302-1.317a4.712 4.712 0 0 0 0-1.252 4.121 4.121 0 0 0-.39-1.297 5.35 5.35 0 0 0-.27-.476zm-47.141.415c.234 0 .424.108.533.38.145.364.145 1.054-.018 1.435-.163.381-.477.52-.574.705-.098.185.047.403.284.802.236.4.562.98.598 1.562.037.58-.218 1.161-.399 1.325-.182.164-.29-.09-.563-.109-.272-.018-.708.2-.98.6-.273.399-.381.98-.545 1.125-.163.146-.381-.145-.763-.29-.38-.146-.925-.145-1.397-.218-.472-.073-.872-.218-1.144-.545-.273-.326-.418-.835-.763-1.017-.345-.181-.89-.036-1.162-.381-.273-.345-.273-1.216-.055-2.034.218-.817.668-1.68 1.097-1.975.428-.295.864-.076 1.463-.095.6-.018 1.363-.272 1.89-.417.526-.146.816-.182 1.16-.327.346-.146.746-.4 1.09-.49a.985.985 0 0 1 .248-.036zm-14.17.684a.621.621 0 0 1 .259.05c.39.155 1.008.627 1.37 1.19.364.563.473 1.217.31 1.798-.164.58-.6 1.089-.963 1.724-.363.636-.654 1.399-.89 1.798-.236.4-.417.435-.944-.09-.526-.527-1.398-1.616-1.452-2.343-.055-.726.707-1.09 1.143-1.67.436-.581.55-1.416.693-1.888.107-.355.246-.556.474-.57zm-8.426 5.122c1.055.005 1.474.117 2.157.784.78.763 1.907 2.252 2.47 3.378.563 1.126.563 1.888.272 2.251-.29.364-.871.327-1.343.128-.473-.2-.836-.563-1.18-.817-.346-.255-.672-.4-.945-.291-.272.109-.49.472-.809.81a2.584 2.584 0 0 1-1.48.806c-.707.127-1.687.054-2.922-.418s-2.724-1.344-3.484-1.943c-.761-.6-.802-.998-.711-1.615.09-.618.309-1.49.527-2.016.217-.527.436-.708 1.761-.835 1.326-.127 3.759-.2 5.193-.218.18-.002.343-.004.494-.003zm72.168 4.728c-.379.612-.81 1.078-1.33 1.441-.608.425-1.37.753-2.024.843-.654.091-1.199-.054-1.598 0-.4.055-.654.31-.636.636.018.327.309.727.545.999.236.272.418.417.472.617.054.2-.019.454.09.69.11.236.4.454.655.763.254.308.472.708.69.89.218.18.435.145.599-.146.163-.29.272-.835.526-1.126a.622.622 0 0 1 .391-.216 1.283 1.283 0 0 1 .003-.365c.068-.344.354-.516.628-.69.274-.173.56-.364.751-.64.19-.274.301-.645.348-1.137.046-.49.027-1.102-.019-1.705a13.66 13.66 0 0 0-.09-.854zM45.593 48.55c.286 0 .567.032.803.077.473.091.763.236.908.527.145.29.145.726-.036.926-.182.2-.545.163-.926.236-.382.072-.781.254-1.253.272-.472.018-1.017-.127-1.29-.327-.272-.2-.272-.454-.09-.762a1.943 1.943 0 0 1 1.053-.835c.254-.082.545-.114.83-.114z" style="display:inline;opacity:1;fill:#dbe3e2;fill-opacity:1;stroke-width:3;stroke-linecap:round" transform="translate(-9.85 -8.918)"/><path d="M65.487 112.129c-.631-.004-1.33.146-2.013.459-.911.417-1.784 1.12-2.398 1.746-.425.432-.72.822-.96 1.15l-.005.008a76.86 76.86 0 0 1-.234.32l-.052.07v.002l-.029.035c-.053.07-.105.137-.154.194a2.512 2.512 0 0 1-.144.157.683.683 0 0 1-.246.175.21.21 0 0 1-.076.011c-.154-.012-.248-.247-.614-.546a4.804 4.804 0 0 0-1.687-.847c-.685-.182-1.416-.182-2.16-.013a4.707 4.707 0 0 0-1.604.688 4.099 4.099 0 0 0-.313.238c-.065.054-.129.11-.191.169-.01.009-.02.016-.028.025-.638.612-1.157 1.498-1.464 2.07l-.196.375a4.606 4.606 0 0 1-.152.273 1.427 1.427 0 0 1-.07.105.668.668 0 0 1-.347.255c-.26.09-.629.11-.97.282a1.816 1.816 0 0 0-.42.298 2.47 2.47 0 0 0-.254.278 3.308 3.308 0 0 0-.33.518c-.259.508-.424 1.133-.518 1.537-.083.353-.112.537-.26.717a.98.98 0 0 1-.07.077l-.026.022a3.367 3.367 0 0 1-.164.142c-.07.058-.149.122-.227.192l-.057.056-.06.057a1.913 1.913 0 0 0-.316.43c-.027.052-.051.106-.074.163l-.019.052c-.015.042-.03.086-.043.13l-.016.058a2.801 2.801 0 0 0-.045.19c-.004.017-.006.035-.009.052l-.024.15c-.004.024-.006.05-.009.074-.006.05-.011.101-.015.153l-.005.073c-.004.07-.008.142-.009.215l.001.038a5.84 5.84 0 0 0 .047.753c.035.264.088.527.162.772.025.082.052.162.081.239.089.233.198.442.33.613a1.943 1.943 0 0 0 .446.407h.001a2.609 2.609 0 0 0 .307.172h.001l.142.062c.09.037.172.065.237.088.13.045.194.068.225.115a.132.132 0 0 1 .018.04v.001c.011.046.009.113.004.216v.005c-.002.072-.006.161-.004.267a2.855 2.855 0 0 0 .028.361v.001c.01.067.022.138.038.212.007.03.018.064.026.096.011.046.021.09.035.137a3.426 3.426 0 0 0 .207.515c.074.146.167.3.27.453.025.038.047.075.074.113a5.27 5.27 0 0 0 .43.53l.03.035h.001c.081.087.166.17.253.25.28.26.59.484.914.638.22.104.445.175.67.224.094.02.188.037.28.05.222.032.44.045.644.048.298.004.569-.013.79-.023.221-.01.393-.012.54.01h.001c.084.014.16.037.234.07.012.005.025.009.037.015a.946.946 0 0 1 .127.077c.043.03.085.066.129.106.043.04.088.087.136.139.047.052.096.11.148.174l.165.204c.115.145.24.304.377.468h.001a6.41 6.41 0 0 0 .45.491c.163.163.338.318.529.456a4.565 4.565 0 0 0 .595.358c.665.333 1.458.537 2.326.636a12.184 12.184 0 0 0 2.615.007c.275-.029.539-.066.784-.112.367-.068.694-.155.98-.247.478-.154.842-.32 1.09-.432.347-.157.48-.217.635-.16.012.004.024.011.036.017l.032.015c.047.026.099.062.16.102l.101.062c.184.107.449.22.884.253.084.006.174.009.27.009h.01c.198.001.417-.01.644-.031a9.843 9.843 0 0 0 1.355-.225 6.218 6.218 0 0 0 .556-.165c.406-.146.673-.307.873-.428v-.001c.08-.048.148-.09.21-.123.248-.13.39-.104.59.052.15.117.334.308.655.555a6.71 6.71 0 0 0 .855.56 6.223 6.223 0 0 0 2.172.721l.033.004c.123.017.25.03.379.04.82.069 1.738.026 2.522-.07.306-.036.592-.081.843-.13.125-.024.242-.05.35-.076.762-.183 1.138-.4 1.396-.549.034-.02.06-.032.09-.049.05-.027.1-.054.143-.073.016-.007.034-.015.05-.02.138-.048.26-.032.437.09.248.171.604.551 1.022.87a4.165 4.165 0 0 0 .564.362 4.705 4.705 0 0 0 1.047.402l.023.006c.292.069.485.071.647.101a.837.837 0 0 1 .308.12c.107.06.229.14.403.22a2.868 2.868 0 0 0 .495.176l.042.01c.469.121 1.118.193 1.81.038.306-.068.618-.18.913-.314a5.804 5.804 0 0 0 .81-.45c.078-.053.151-.106.22-.158v-.001c.03-.022.053-.044.08-.065.036-.03.075-.06.108-.09h.001c.037-.034.067-.065.098-.097.017-.017.037-.035.052-.052a1.818 1.818 0 0 0 .203-.265 1.374 1.374 0 0 0 .143-.316c.019-.057.034-.106.051-.145a.283.283 0 0 1 .03-.052.169.169 0 0 1 .036-.037.203.203 0 0 1 .11-.035.524.524 0 0 1 .079 0l.01.003c.088.008.203.031.361.07.437.103 1.192.311 1.923.298a4.142 4.142 0 0 0 1.266-.229c.145-.05.277-.106.39-.163l.001-.001a2.15 2.15 0 0 0 .157-.087 1.24 1.24 0 0 0 .228-.177l.006-.006a.768.768 0 0 0 .128-.17c.063-.118.084-.234.102-.351v-.001c.009-.059.017-.117.028-.174a.966.966 0 0 1 .044-.164.47.47 0 0 1 .082-.144v-.002a.475.475 0 0 1 .14-.115c.237-.13.685-.156 1.134-.325a2.65 2.65 0 0 0 .146-.062c.025-.01.049-.023.073-.035l.014-.007.074-.037.006-.003c.028-.015.055-.03.081-.046l.053-.03.096-.063.05-.035a2.207 2.207 0 0 0 .21-.168l.042-.041a1.42 1.42 0 0 0 .265-.333 1.33 1.33 0 0 0 .15-.441 1.947 1.947 0 0 0 .023-.291v-.002a2.64 2.64 0 0 0-.031-.386 3.712 3.712 0 0 0-.038-.199c-.037-.175-.066-.28-.022-.348.045-.068.162-.1.313-.228a1.212 1.212 0 0 0 .16-.163c.083-.102.172-.24.252-.403a2.597 2.597 0 0 0 .197-.553 2.229 2.229 0 0 0 .058-.424 2.18 2.18 0 0 0-.003-.208 2.372 2.372 0 0 0-.023-.221l-.015-.08a2.548 2.548 0 0 0-.095-.367 3.263 3.263 0 0 0-.088-.234l-.042-.1a3.662 3.662 0 0 0-.086-.17c-.011-.022-.02-.043-.032-.065a4.123 4.123 0 0 0-.13-.22h-.001a4.577 4.577 0 0 0-.197-.287c-.515-.692-1.342-1.447-2.109-1.747-.767-.3-1.475-.143-1.9-.13-.425.013-.566-.117-.908-.469-.343-.351-.886-.924-1.688-1.354-.803-.43-1.865-.716-2.455-.925-.59-.208-.708-.339-.79-.625-.084-.287-.13-.73-.343-1.185-.212-.456-.59-.925-.944-1.133-.354-.209-.684-.157-.862-.196-.177-.038-.2-.169-.555-.924-.354-.755-1.038-2.135-1.935-2.93-.897-.795-2.001-1.003-3.266-.886a9.45 9.45 0 0 0-1.447.255c-.158.04-.314.085-.47.132l-.041.013c-.147.045-.291.093-.433.143l-.064.024c-.126.045-.25.093-.37.143l-.055.022a8.707 8.707 0 0 0-.387.173l-.05.024a7.254 7.254 0 0 0-.368.19v.001a6.727 6.727 0 0 0-.964.655c-.09.073-.175.145-.254.215h-.001c-.318.282-.557.536-.74.705-.366.339-.507.339-.814.079a6.958 6.958 0 0 1-.257-.235v.001c-.291-.275-.664-.633-1.06-.854-.4-.223-.836-.32-1.178-.367a5.069 5.069 0 0 0-.29-.03c-.355-.027-.477 0-.581-.195a2.55 2.55 0 0 1-.116-.286 11.15 11.15 0 0 0-.125-.326c-.02-.047-.035-.09-.057-.14a5.296 5.296 0 0 0-.07-.156l-.004-.009a4.958 4.958 0 0 0-.122-.242 8.292 8.292 0 0 0-1.333-1.771c-.543-.547-1.133-.964-1.9-1.108a3.429 3.429 0 0 0-.605-.056z" style="display:inline;opacity:.247449;mix-blend-mode:normal;fill:#000;stroke-width:4.01233;stroke-linecap:round;filter:url(#a)" transform="rotate(-10.083 -386.51 75.622)"/><path d="M130.679 139.36c-.204-.065-.612-.195-.89-.52-.278-.324-.426-.843-.473-1.343-.046-.501.01-.983.195-1.308.185-.324.5-.491.667-.64.167-.147.186-.277.26-.564.074-.288.204-.733.408-1.094.204-.362.482-.64.788-.78.306-.138.64-.138.843-.23.204-.093.278-.279.52-.687.24-.408.648-1.038 1.149-1.474.5-.435 1.094-.676 1.678-.797a3.88 3.88 0 0 1 1.696.01 3.93 3.93 0 0 1 1.326.602c.287.213.36.38.481.389.12.009.288-.14.51-.408.223-.269.5-.658.983-1.103.482-.445 1.168-.946 1.883-1.242.715-.297 1.454-.39 2.057-.287.602.102 1.066.398 1.492.788.426.389.816.871 1.047 1.26.232.39.306.686.388.826.081.139.178.12.456.138.278.019.741.074 1.154.283.412.209.792.589 1.033.774.242.185.353.185.64-.056.287-.24.75-.723 1.539-1.121.788-.399 1.9-.714 2.893-.797.994-.083 1.862.064 2.567.63.704.566 1.242 1.548 1.52 2.086.278.537.296.63.435.658.14.027.399-.01.677.139.278.148.575.482.742.806.166.325.203.64.268.844.065.204.158.296.622.445.463.148 1.297.352 1.928.658.63.306 1.056.714 1.325.964.269.25.38.343.714.334.334-.01.89-.121 1.492.092.603.214 1.252.751 1.657 1.244.404.492.577.972.559 1.389a1.66 1.66 0 0 1-.399.982c-.176.195-.324.213-.37.278-.047.066.008.177.046.39.037.213.055.528-.112.797s-.519.491-.872.612c-.352.12-.703.139-.889.231-.185.093-.204.26-.232.427-.028.167-.065.334-.364.501-.299.168-.85.333-1.425.342-.574.01-1.167-.139-1.51-.213-.343-.074-.436-.074-.492.037-.056.112-.074.334-.43.623-.356.29-1.034.638-1.674.768-.64.13-1.233.037-1.604-.074-.37-.112-.519-.241-.676-.297-.158-.056-.325-.037-.63-.102a3.779 3.779 0 0 1-1.14-.454c-.39-.241-.724-.575-.946-.714-.223-.14-.334-.084-.566.037-.232.12-.584.306-1.372.445-.787.139-2.011.232-2.966.111a5.234 5.234 0 0 1-2.085-.723c-.445-.268-.65-.472-.807-.584-.157-.111-.269-.13-.463-.037-.195.093-.473.297-1.056.454-.583.158-1.475.269-2.022.232-.547-.037-.75-.222-.899-.297-.148-.074-.241-.037-.553.092-.312.128-.856.353-1.625.483-.77.13-1.77.167-2.67.074-.9-.092-1.696-.315-2.294-.707-.599-.393-1.015-.98-1.312-1.276-.296-.297-.482-.316-.945-.297-.464.018-1.205.074-1.873-.213-.667-.287-1.26-.918-1.548-1.437-.287-.519-.269-.927-.26-1.13.01-.205.01-.205-.194-.27z" style="display:inline;opacity:1;fill:#fafafa;fill-opacity:1;stroke-width:3;stroke-linecap:round" transform="matrix(1.25351 -.2229 .24597 1.38326 -145.145 -112.002)"/><path d="M147.325 129.978c-.468.698-1.031 1.52-1.226 2.023-.244.63.09.758.347.796.256.039.436-.013.616.064.18.078.36.283.552.334.193.052.398-.05.475-.282.077-.23.026-.59.051-.796.026-.206.129-.257.193-.809.013-.113.025-.248.038-.39a4.367 4.367 0 0 0-.228-.022c-.278-.018-.374.001-.456-.138-.078-.134-.152-.413-.362-.78zm6.942.182a7.987 7.987 0 0 0-1.758.616c-.788.398-1.252.88-1.539 1.121-.287.241-.398.241-.64.056a5.352 5.352 0 0 1-.2-.167c.064.607-.1 1.088-.025 1.41.09.384.526.539.745.475.218-.064.217-.347.372-.476.154-.128.462-.103.641.141.18.244.232.707.386 1.015.154.308.411.462.706.68.296.219.63.501.783.72.154.218.124.397.23.68.104.283.335.72.4 1.04.063.32-.04.526 0 .822.038.295.217.68.307 1.014.09.334.09.616 0 .899-.09.282-.27.564-.475.693-.205.128-.433.103-.64-.013-.207-.115-.374-.306-.573-.378-.2-.072-.404.006-.764.006s-.873-.077-1.194-.192c-.32-.116-.45-.27-.372-.347.077-.077.36-.077.565-.116.205-.038.333-.115.23-.334-.102-.218-.436-.577-.654-1.04-.218-.462-.326-1.051-.362-1.437-.036-.386-.008-.642-.227-.86-.22-.219-.682-.45-1.029-.489-.346-.038-.577.116-.821.205-.244.09-.5.116-.745.231-.244.116-.475.322-.54.515-.064.192.05.391-.006.625-.057.235-.263.543-.481.8-.218.256-.462.473-.649.429-.186-.044-.34-.327-.558-.404-.218-.077-.5.051-.719.013-.218-.038-.372-.244-.629-.488a9 9 0 0 0-.924-.744c-.309-.219-.565-.373-.617-.553-.051-.18.103-.385.321-.526a.842.842 0 0 1 .848-.064c.346.154.757.54 1.065.629.308.09.514-.116.77-.206.258-.09.564-.064.744-.205.18-.141.232-.45.386-.63s.407-.23.165-.333c-.241-.103-.986-.257-1.5-.526a1.93 1.93 0 0 1-.943-1.049c-.135-.377-.135-.762-.238-1.044-.102-.283-.308-.462-.514-.45-.205.013-.41.219-.744.206-.334-.013-.796-.244-1.4-.706-.455-.349-.989-.828-1.385-1.192-.083.104-.16.201-.228.284-.189.228-.337.367-.451.4.044.472-.038.82-.199 1.085-.164.27-.433.513-1.017.533-.584.02-1.509-.16-2.215-.635a3.183 3.183 0 0 1-1.21-1.592c-.21.113-.411.25-.6.414-.5.435-.908 1.066-1.15 1.474-.24.407-.315.593-.519.685-.203.093-.537.093-.843.232-.306.14-.584.418-.788.78-.204.36-.334.805-.408 1.093-.074.287-.092.417-.26.565-.166.148-.482.315-.667.64-.138.242-.204.572-.21.932.19.164.393.32.582.426.437.244.796.218 1.297.475.5.257 1.142.796 1.592 1.092.45.295.706.346 1.069.307.363-.04.818-.167 1.28-.629.463-.462.925-1.258 1.246-1.707.22-.31.375-.455.483-.452.049 0 .088.032.12.093.103.192.128.68.167 1.412.038.732.09 1.707.514 2.388.423.68 1.22 1.066 2.105 1.245.886.18 1.862.154 2.542-.026.68-.18 1.066-.513 1.259-.744.192-.231.192-.41.058-.598-.135-.188-.43-.43-.687-.712-.257-.282-.488-.616-.424-.706.064-.09.424.064.783.193.36.128.72.23 1.336.18.616-.052 1.49-.258 1.99-.27.5-.013.629.167.282.385-.347.218-1.168.475-1.643.693-.475.219-.604.398-.63.655a1.42 1.42 0 0 0 .206.835c.154.244.385.398.963.372.578-.026 1.502-.231 2.093-.578.59-.346.847-.834 1.155-.95.308-.115.668.142 1.117.54.45.398.989.937 1.592 1.245.604.308 1.271.385 1.965.308.693-.077 1.412-.309 1.887-.63.475-.32.706-.731.899-.705.192.025.347.488 1.048 1.063.7.574 1.97 1.273 2.86 1.45.893.175 1.394-.151 1.83-.575.437-.424.797-.937 1.31-.988.514-.051 1.182.36 1.722.565.539.205.95.205 1.876.09.539-.068 1.249-.173 1.855-.048a.928.928 0 0 0 .074-.1c.166-.27.148-.585.11-.798-.036-.213-.092-.324-.045-.39.046-.064.194-.083.37-.278a1.66 1.66 0 0 0 .399-.982c.016-.359-.11-.764-.404-1.184-.39.576-.825 1.067-1.315 1.335-.687.377-1.508.352-2.15.506-.643.154-1.117.496-1.24.428-.121-.069.084-.53.084-.813 0-.283-.205-.386-.36-.617-.154-.23-.263-.614-.44-.794-.176-.181-.435-.207-.626-.053-.192.154-.32.488-.449.732-.128.243-.256.398-.372.436-.115.039-.218-.038-.27-.205-.051-.167-.05-.45-.205-.59-.154-.142-.462-.193-.706-.09-.244.102-.424.359-.424.539 0 .18.18.282.309.424.128.141.214.342.274.69.059.35.11.889-.005 1.184-.116.295-.399.346-.668.231-.27-.115-.526-.398-.899-.706-.372-.308-.86-.642-1.322-.911-.462-.27-.899-.476-1.066-.681-.167-.205-.054-.432.07-.627.123-.195.289-.417.45-.614.16-.197.353-.417.578-.474.225-.057.507.02.648-.057.141-.077.141-.308.18-.539.038-.231.123-.485.26-.654.138-.168.343-.297.42-.515.077-.218.026-.526-.102-.82-.128-.296-.334-.58-.59-.746a.976.976 0 0 0-.835-.128c-.27.09-.501.32-.835.565-.334.243-.77.5-1.22.603-.449.102-.911.052-1.143-.064-.23-.115-.23-.295-.205-.604.025-.308.08-.77.014-1.116-.065-.347-.245-.63-.656-.835-.41-.206-1.053-.334-1.528-.411-.475-.077-.783-.103-.988-.231a.6.6 0 0 1-.27-.616c.039-.257.218-.54.437-.59.218-.052.487.136.712.106.225-.03.43-.261.674-.646.185-.292.391-.67.542-.955zm-15.48 4.86c.11-.002.232.069.325.192.164.219.246.654.426.988.18.334.462.59.7.827.237.237.456.483.52.7.064.219-.014.424.14.694.155.27.54.603.578.834.039.231-.269.36-.718.283-.45-.077-1.04-.36-1.387-.796-.347-.437-.45-1.027-.565-1.45-.116-.425-.244-.681-.308-1.04-.064-.36-.065-.874.064-1.093.056-.095.137-.139.224-.14zm-7.931 4.421zm38.065 3.46-.032.03.032-.03zm-.094.084-.04.032c.014-.01.027-.02.04-.032zm-.102.078zm-.112.072a1.768 1.768 0 0 0 0 0zm-.118.066-.047.024.047-.024zm-.12.057-.054.023.053-.023zm-31.98.4zm26.583 1.512z" style="display:inline;opacity:1;fill:#dbe3e2;fill-opacity:1;stroke-width:3;stroke-linecap:round" transform="matrix(1.25351 -.2229 .24597 1.38326 -145.145 -112.002)"/><path d="M136.85 136.633c-.109-.002-.263.143-.483.452-.321.45-.784 1.246-1.246 1.708-.462.462-.917.589-1.28.628-.363.04-.62-.011-1.07-.307-.449-.295-1.09-.834-1.592-1.091-.5-.257-.86-.231-1.296-.475a3.77 3.77 0 0 1-.582-.426c-.002.122.003.248.015.375.046.5.195 1.02.473 1.343.279.325.686.455.89.52.204.064.204.064.195.268-.01.204-.029.612.259 1.131.287.52.88 1.15 1.548 1.437.668.287 1.41.232 1.873.213.463-.018.649 0 .945.297.297.297.713.883 1.312 1.276.598.392 1.395.615 2.294.707.9.093 1.9.056 2.67-.074.769-.13 1.313-.355 1.625-.483.312-.129.404-.166.553-.091.148.074.352.26.899.296.547.037 1.44-.074 2.022-.232.583-.157.861-.361 1.056-.454.195-.093.306-.074.463.037.158.111.362.315.807.584.445.269 1.13.603 2.085.723.955.12 2.179.028 2.966-.111.788-.14 1.14-.325 1.372-.445.232-.12.343-.176.566-.037.222.139.556.473.945.714.39.24.835.389 1.14.454.306.064.473.046.63.102.159.056.307.185.677.297.371.11.964.203 1.604.074.64-.13 1.318-.479 1.674-.768.356-.289.374-.511.43-.623.056-.111.149-.111.492-.037.343.074.936.222 1.51.213.575-.009 1.126-.174 1.425-.342.3-.167.336-.334.364-.501.028-.167.047-.334.232-.427.186-.092.537-.111.89-.232.307-.105.614-.287.798-.51-.607-.125-1.316-.02-1.855.047-.927.116-1.337.116-1.877-.09-.539-.205-1.207-.616-1.72-.564-.514.05-.874.564-1.31.988-.437.423-.939.75-1.83.574-.892-.176-2.16-.875-2.862-1.45-.7-.574-.855-1.037-1.048-1.063-.192-.026-.423.385-.898.706-.475.321-1.194.552-1.888.63-.693.077-1.36 0-1.964-.308-.603-.308-1.143-.848-1.592-1.246-.45-.398-.809-.655-1.117-.54-.308.116-.565.604-1.156.951-.59.347-1.514.552-2.092.578-.578.026-.81-.128-.963-.372a1.42 1.42 0 0 1-.206-.835c.026-.257.154-.437.63-.655.475-.218 1.296-.476 1.643-.694.346-.218.218-.397-.282-.385-.501.013-1.374.219-1.99.27a2.843 2.843 0 0 1-1.336-.18c-.36-.128-.719-.282-.783-.192-.064.09.167.424.424.706.256.282.552.524.686.712.135.187.135.366-.058.597-.192.231-.578.565-1.258.745-.68.18-1.656.206-2.542.026-.886-.18-1.682-.565-2.106-1.246-.424-.68-.475-1.656-.513-2.387-.039-.732-.065-1.22-.167-1.413-.032-.06-.072-.092-.12-.093z" style="opacity:1;fill:#b1bfc3;fill-opacity:1;stroke-width:3;stroke-linecap:round" transform="matrix(1.25351 -.2229 .24597 1.38326 -145.145 -112.002)"/></g></svg>